<svg width="133" height="57" viewBox="0 0 133 57" fill="none" xmlns="http://www.w3.org/2000/svg">
<path d="M44.1773 10.09H48.4664L46.1578 3.43399H46.0875L43.5679 9.64499C43.5133 9.77799 43.5367 9.88699 43.6383 9.97299C43.7476 10.051 43.9273 10.09 44.1773 10.09ZM41.4586 15.106C41.3883 15.246 41.3609 15.375 41.3765 15.492C41.4 15.602 41.4273 15.696 41.4586 15.774C41.4898 15.852 41.5562 15.922 41.6578 15.985C41.7672 16.047 41.8687 16.098 41.9625 16.137C42.0562 16.176 42.1734 16.207 42.314 16.231C42.4625 16.254 42.5953 16.274 42.7125 16.289C42.8297 16.305 42.9625 16.317 43.1109 16.324C43.1812 16.395 43.2164 16.488 43.2164 16.606C43.2164 16.715 43.1812 16.805 43.1109 16.875C42.8765 16.867 42.4781 16.844 41.9156 16.805C41.3531 16.774 40.8883 16.758 40.5211 16.758C40.1773 16.758 39.7554 16.774 39.2554 16.805C38.7633 16.844 38.3922 16.867 38.1422 16.875C38.0719 16.805 38.0367 16.715 38.0367 16.606C38.0367 16.488 38.0719 16.395 38.1422 16.324C38.7281 16.285 39.2008 16.149 39.5601 15.914C39.9273 15.68 40.2554 15.227 40.5445 14.555L46.1109 1.442C46.3922 1.442 46.8101 1.281 47.3648 0.960999L52.3804 14.93C52.4664 15.164 52.5679 15.367 52.6851 15.539C52.8101 15.703 52.9312 15.832 53.0484 15.926C53.1656 16.02 53.3179 16.098 53.5054 16.16C53.7008 16.215 53.8609 16.25 53.9859 16.266C54.1187 16.281 54.3023 16.301 54.5367 16.324C54.607 16.395 54.6422 16.488 54.6422 16.606C54.6422 16.715 54.607 16.805 54.5367 16.875C54.3258 16.867 53.8804 16.844 53.2008 16.805C52.5289 16.774 52.0054 16.758 51.6304 16.758C51.2711 16.758 50.7047 16.774 49.9312 16.805C49.1656 16.844 48.6851 16.867 48.4898 16.875C48.4195 16.805 48.3844 16.715 48.3844 16.606C48.3844 16.488 48.4195 16.395 48.4898 16.324C49.2554 16.27 49.732 16.207 49.9195 16.137C50.3023 15.996 50.4195 15.707 50.2711 15.27L48.7476 10.852H43.7437C43.4781 10.852 43.2867 10.895 43.1695 10.981C43.0601 11.067 42.9703 11.199 42.9 11.379L41.4586 15.106Z" fill="white"/>
<path d="M59.3273 14.285C59.3742 12.27 59.3976 10.254 59.3976 8.23799C59.3976 5.61299 59.3742 3.84399 59.3273 2.92999C59.3117 2.63299 59.2922 2.395 59.2687 2.215C59.2531 2.028 59.2219 1.86299 59.175 1.72299C59.1281 1.57399 59.0773 1.46499 59.0226 1.39499C58.968 1.32399 58.8781 1.26599 58.7531 1.21899C58.6359 1.16399 58.5148 1.12899 58.3898 1.11299C58.2726 1.09799 58.1008 1.082 57.8742 1.067C57.7726 0.965001 57.7453 0.813001 57.7922 0.610001C58.2609 0.570001 58.8195 0.487991 59.468 0.362991C60.1242 0.237991 60.593 0.117 60.8742 0C61.0773 0 61.1789 0.0739919 61.1789 0.222992C61.1398 0.628992 61.1086 1.348 61.0851 2.379C61.0461 4.41 61.0265 6.57 61.0265 8.86C61.0265 10.891 61.0461 12.699 61.0851 14.285C61.093 14.629 61.1047 14.899 61.1203 15.094C61.1359 15.297 61.1711 15.481 61.2258 15.645C61.2883 15.801 61.3469 15.918 61.4015 15.996C61.4562 16.067 61.5578 16.129 61.7062 16.184C61.8547 16.238 61.9953 16.274 62.1281 16.289C62.2609 16.297 62.464 16.309 62.7375 16.324C62.8078 16.395 62.843 16.488 62.843 16.606C62.843 16.715 62.8078 16.805 62.7375 16.875C62.4562 16.867 62.05 16.844 61.5187 16.805C60.9953 16.774 60.5539 16.758 60.1945 16.758C59.8351 16.758 59.3937 16.774 58.8703 16.805C58.3469 16.844 57.9484 16.867 57.675 16.875C57.6047 16.805 57.5695 16.715 57.5695 16.606C57.5695 16.488 57.6047 16.395 57.675 16.324C57.9484 16.309 58.1515 16.297 58.2844 16.289C58.4172 16.274 58.5578 16.238 58.7062 16.184C58.8547 16.129 58.9562 16.067 59.0109 15.996C59.0656 15.918 59.1203 15.801 59.175 15.645C59.2375 15.481 59.2765 15.297 59.2922 15.094C59.3078 14.891 59.3195 14.621 59.3273 14.285Z" fill="white"/>
<path d="M67.7273 2.379C67.7273 2.098 67.864 1.83599 68.1375 1.59399C68.4109 1.35199 68.6922 1.231 68.9812 1.231C69.2937 1.231 69.5633 1.363 69.7898 1.629C70.0164 1.887 70.1297 2.16799 70.1297 2.47299C70.1297 2.73799 70.0008 3 69.7429 3.258C69.4929 3.508 69.2078 3.633 68.8875 3.633C68.5984 3.633 68.3328 3.504 68.0906 3.246C67.8484 2.981 67.7273 2.692 67.7273 2.379ZM69.7898 14.145C69.7976 14.496 69.8094 14.781 69.825 15C69.8406 15.219 69.8797 15.414 69.9422 15.586C70.0047 15.75 70.0633 15.875 70.1179 15.961C70.1805 16.039 70.2859 16.11 70.4344 16.172C70.5906 16.227 70.739 16.262 70.8797 16.278C71.0203 16.293 71.2351 16.309 71.5242 16.324C71.5945 16.395 71.6297 16.488 71.6297 16.606C71.6297 16.715 71.5945 16.805 71.5242 16.875C71.2195 16.867 70.8015 16.844 70.2703 16.805C69.739 16.774 69.2937 16.758 68.9344 16.758C68.5672 16.758 68.1101 16.774 67.5633 16.805C67.0164 16.844 66.5984 16.867 66.3094 16.875C66.239 16.805 66.2039 16.715 66.2039 16.606C66.2039 16.488 66.239 16.395 66.3094 16.324C66.5984 16.301 66.8094 16.281 66.9422 16.266C67.0828 16.242 67.2312 16.203 67.3875 16.149C67.5437 16.086 67.6492 16.016 67.7039 15.938C67.7664 15.86 67.825 15.738 67.8797 15.574C67.9422 15.403 67.9812 15.211 67.9969 15C68.0203 14.781 68.0359 14.496 68.0437 14.145C68.075 13.192 68.0906 12.297 68.0906 11.461C68.0906 11.031 68.075 10.34 68.0437 9.38699C68.0281 9.01999 68.0047 8.74199 67.9734 8.55499C67.9422 8.36699 67.8601 8.21499 67.7273 8.09799C67.6023 7.98099 67.4539 7.90299 67.282 7.86299C67.1179 7.82399 66.8523 7.789 66.4851 7.758C66.4226 7.57 66.407 7.42599 66.4383 7.32399C67.8601 7.14499 68.9226 6.914 69.6258 6.633C69.8367 6.633 69.9422 6.688 69.9422 6.797C69.8797 7.656 69.8289 8.48499 69.7898 9.28099C69.7586 9.92999 69.7429 10.664 69.7429 11.485C69.7429 11.766 69.7508 12.274 69.7664 13.008C69.782 13.735 69.7898 14.113 69.7898 14.145Z" fill="white"/>
<path d="M83.7094 14.672C83.3422 15.274 82.9359 15.75 82.4906 16.102C82.0531 16.453 81.6312 16.688 81.225 16.805C80.8187 16.93 80.3656 16.992 79.8656 16.992C78.4359 16.992 77.3031 16.535 76.4672 15.621C75.6312 14.699 75.2133 13.492 75.2133 12C75.2133 11.219 75.3578 10.492 75.6469 9.81999C75.9359 9.14099 76.3109 8.578 76.7719 8.133C77.2328 7.688 77.7484 7.34 78.3187 7.09C78.889 6.832 79.4594 6.703 80.0297 6.703C81.1156 6.703 81.9945 6.90999 82.6664 7.32399C83.3461 7.73099 83.6859 8.25 83.6859 8.883C83.6859 9.211 83.5687 9.461 83.3344 9.633C83.1078 9.805 82.8539 9.89099 82.5726 9.89099C82.3148 9.89099 82.1156 9.832 81.975 9.715C81.8344 9.598 81.7484 9.387 81.7172 9.082C81.5765 7.863 80.975 7.254 79.9125 7.254C79.1312 7.254 78.4554 7.656 77.8851 8.461C77.3148 9.258 77.0297 10.27 77.0297 11.496C77.0297 12.895 77.35 14.016 77.9906 14.86C78.639 15.696 79.432 16.113 80.3695 16.113C80.8617 16.113 81.3851 15.957 81.9398 15.645C82.4945 15.332 82.9633 14.926 83.3461 14.426C83.4633 14.442 83.5414 14.461 83.5804 14.485C83.6195 14.508 83.6625 14.57 83.7094 14.672Z" fill="white"/>
<path d="M89.5547 10.547L94.1957 10.418C94.4137 10.41 94.5237 10.309 94.5237 10.113C94.5237 9.20699 94.3127 8.504 93.8907 8.004C93.4687 7.504 92.9607 7.254 92.3667 7.254C92.1247 7.254 91.8747 7.309 91.6167 7.418C91.3597 7.52 91.0897 7.688 90.8087 7.922C90.5277 8.156 90.2737 8.5 90.0467 8.953C89.8207 9.406 89.6567 9.938 89.5547 10.547ZM95.8947 14.625C96.1447 14.649 96.3047 14.774 96.3747 15C95.8987 15.625 95.3207 16.113 94.6407 16.465C93.9607 16.817 93.2027 16.992 92.3667 16.992C90.7737 16.992 89.5667 16.508 88.7457 15.539C88.0273 14.696 87.6679 13.559 87.6679 12.129C87.6679 11.293 87.8086 10.524 88.0898 9.81999C88.3789 9.11699 88.7497 8.547 89.2027 8.11C89.6637 7.664 90.1677 7.32 90.7147 7.078C91.2617 6.828 91.8127 6.703 92.3667 6.703C92.9847 6.703 93.5277 6.78499 93.9957 6.94899C94.4727 7.10599 94.8557 7.31299 95.1447 7.56999C95.4417 7.81999 95.6797 8.129 95.8597 8.496C96.0467 8.856 96.1757 9.21499 96.2457 9.57399C96.3167 9.93399 96.3517 10.32 96.3517 10.735C96.3517 10.852 96.3127 10.949 96.2347 11.028C96.1567 11.106 96.0507 11.145 95.9177 11.145L89.4847 11.238C89.4847 12.598 89.7267 13.668 90.2107 14.449C90.5467 14.996 90.9727 15.41 91.4887 15.692C91.9957 15.973 92.4807 16.113 92.9417 16.113C93.5507 16.113 94.0737 15.992 94.5117 15.75C94.9487 15.5 95.4097 15.125 95.8947 14.625Z" fill="white"/>
<path d="M4.2305 34.145C4.2383 34.488 4.2578 34.758 4.289 34.953C4.3203 35.141 4.3867 35.336 4.4883 35.539C4.5976 35.735 4.75 35.883 4.9453 35.985C5.1484 36.078 5.418 36.156 5.7539 36.219C6.0976 36.274 6.5273 36.301 7.043 36.301C7.7539 36.301 8.414 36.238 9.0234 36.113C9.6328 35.981 10.2187 35.762 10.7812 35.457C11.3437 35.145 11.8242 34.754 12.2226 34.285C12.6211 33.809 12.9375 33.203 13.1719 32.469C13.4062 31.727 13.5234 30.883 13.5234 29.938C13.5234 29.164 13.4453 28.406 13.289 27.664C13.1328 26.914 12.875 26.18 12.5156 25.461C12.1562 24.735 11.7109 24.102 11.1797 23.563C10.6484 23.016 9.9765 22.574 9.164 22.238C8.3515 21.903 7.4453 21.735 6.4453 21.735C6.0859 21.735 5.7812 21.754 5.5312 21.793C5.289 21.824 5.0859 21.879 4.9219 21.957C4.7656 22.035 4.6406 22.125 4.5469 22.227C4.4609 22.328 4.3945 22.465 4.3476 22.637C4.3086 22.801 4.2812 22.969 4.2656 23.141C4.25 23.313 4.2383 23.528 4.2305 23.785V23.891C4.168 26.578 4.1367 28.309 4.1367 29.082C4.1367 30.707 4.168 32.395 4.2305 34.145ZM3.1758 21.278C3.418 21.278 4.0234 21.258 4.9922 21.219C5.9609 21.18 6.7461 21.16 7.3476 21.16C8.4805 21.16 9.5586 21.379 10.582 21.817C11.6133 22.254 12.5 22.844 13.2422 23.586C13.9844 24.32 14.5742 25.196 15.0117 26.211C15.457 27.219 15.6797 28.27 15.6797 29.363C15.6797 30.496 15.5117 31.512 15.1758 32.41C14.8398 33.301 14.4062 34.02 13.875 34.567C13.3515 35.113 12.7305 35.567 12.0117 35.926C11.3008 36.285 10.5976 36.535 9.9023 36.676C9.2148 36.809 8.5078 36.875 7.7812 36.875C6.8203 36.875 5.8594 36.856 4.8984 36.817C3.9375 36.778 3.3789 36.758 3.2226 36.758C2.7773 36.758 2.2265 36.774 1.5703 36.805C0.9219 36.844 0.4336 36.867 0.1055 36.875C0.0351002 36.805 0 36.715 0 36.606C0 36.488 0.0351002 36.395 0.1055 36.324C0.3398 36.317 0.5273 36.309 0.668 36.301C0.8164 36.285 0.9687 36.266 1.125 36.242C1.2812 36.211 1.3984 36.176 1.4765 36.137C1.5625 36.09 1.6484 36.031 1.7344 35.961C1.8281 35.883 1.8945 35.797 1.9336 35.703C1.9805 35.602 2.0234 35.473 2.0625 35.317C2.1015 35.16 2.125 34.992 2.1328 34.813C2.1484 34.625 2.1601 34.403 2.168 34.145C2.2305 31.488 2.2617 29.793 2.2617 29.059C2.2617 28.27 2.2305 26.547 2.168 23.891C2.1601 23.633 2.1484 23.414 2.1328 23.235C2.125 23.047 2.1015 22.875 2.0625 22.719C2.0234 22.563 1.9805 22.438 1.9336 22.344C1.8945 22.242 1.8281 22.156 1.7344 22.086C1.6484 22.008 1.5625 21.949 1.4765 21.91C1.3984 21.863 1.2812 21.828 1.125 21.805C0.9687 21.774 0.8164 21.754 0.668 21.746C0.5273 21.731 0.3398 21.719 0.1055 21.711C0.0351002 21.641 0 21.551 0 21.442C0 21.324 0.0351002 21.231 0.1055 21.16C0.4492 21.168 0.9375 21.192 1.5703 21.231C2.2109 21.262 2.7461 21.278 3.1758 21.278Z" fill="white"/>
<path d="M21.1031 22.379C21.1031 22.098 21.2398 21.836 21.5133 21.594C21.7867 21.352 22.0679 21.231 22.357 21.231C22.6695 21.231 22.939 21.363 23.1656 21.629C23.3922 21.887 23.5054 22.168 23.5054 22.473C23.5054 22.738 23.3765 23 23.1187 23.258C22.8687 23.508 22.5836 23.633 22.2633 23.633C21.9742 23.633 21.7086 23.504 21.4664 23.246C21.2242 22.981 21.1031 22.692 21.1031 22.379ZM23.1656 34.145C23.1734 34.496 23.1851 34.781 23.2008 35C23.2164 35.219 23.2554 35.414 23.3179 35.586C23.3804 35.75 23.439 35.875 23.4937 35.961C23.5562 36.039 23.6617 36.11 23.8101 36.172C23.9664 36.227 24.1148 36.262 24.2554 36.278C24.3961 36.293 24.6109 36.309 24.9 36.324C24.9703 36.395 25.0054 36.488 25.0054 36.606C25.0054 36.715 24.9703 36.805 24.9 36.875C24.5953 36.867 24.1773 36.844 23.6461 36.805C23.1148 36.774 22.6695 36.758 22.3101 36.758C21.9429 36.758 21.4859 36.774 20.939 36.805C20.3922 36.844 19.9742 36.867 19.6851 36.875C19.6148 36.805 19.5797 36.715 19.5797 36.606C19.5797 36.488 19.6148 36.395 19.6851 36.324C19.9742 36.301 20.1851 36.281 20.3179 36.266C20.4586 36.242 20.607 36.203 20.7633 36.149C20.9195 36.086 21.025 36.016 21.0797 35.938C21.1422 35.86 21.2008 35.738 21.2554 35.574C21.3179 35.403 21.357 35.211 21.3726 35C21.3961 34.781 21.4117 34.496 21.4195 34.145C21.4508 33.192 21.4664 32.297 21.4664 31.461C21.4664 31.031 21.4508 30.34 21.4195 29.387C21.4039 29.02 21.3804 28.742 21.3492 28.555C21.3179 28.367 21.2359 28.215 21.1031 28.098C20.9781 27.981 20.8297 27.903 20.6578 27.863C20.4937 27.824 20.2281 27.789 19.8609 27.758C19.7984 27.57 19.7828 27.426 19.814 27.324C21.2359 27.145 22.2984 26.914 23.0015 26.633C23.2125 26.633 23.3179 26.688 23.3179 26.797C23.2554 27.656 23.2047 28.485 23.1656 29.281C23.1344 29.93 23.1187 30.664 23.1187 31.485C23.1187 31.766 23.1265 32.274 23.1422 33.008C23.1578 33.735 23.1656 34.113 23.1656 34.145Z" fill="white"/>
<path d="M28.8469 33.735C29.0031 33.578 29.1555 33.57 29.3039 33.711C29.5539 34.727 29.8898 35.438 30.3117 35.844C30.4601 35.992 30.6906 36.133 31.0031 36.266C31.3156 36.399 31.6711 36.465 32.0695 36.465C32.5383 36.465 32.9914 36.289 33.4289 35.938C33.8664 35.586 34.0851 35.149 34.0851 34.625C34.0851 34.125 33.9172 33.711 33.5812 33.383C33.2609 33.07 32.6281 32.715 31.6828 32.317C30.7531 31.926 30.1008 31.524 29.7258 31.11C29.3508 30.688 29.1633 30.074 29.1633 29.27C29.1633 28.551 29.4836 27.946 30.1242 27.453C30.7726 26.953 31.5305 26.703 32.3976 26.703C32.7492 26.703 33.1086 26.731 33.4758 26.785C33.8508 26.84 34.2297 26.91 34.6125 26.996C34.9953 27.082 35.2492 27.137 35.3742 27.16C35.3664 27.34 35.343 27.692 35.3039 28.215C35.2726 28.738 35.257 29.153 35.257 29.457C35.1867 29.528 35.1008 29.567 34.9992 29.574C34.9055 29.582 34.8234 29.551 34.7531 29.481C34.5265 27.981 33.7414 27.231 32.3976 27.231C31.9914 27.231 31.6047 27.403 31.2375 27.746C30.8781 28.082 30.6984 28.477 30.6984 28.93C30.6984 29.492 30.8898 29.93 31.2726 30.242C31.6398 30.539 32.2414 30.848 33.0773 31.168C33.9445 31.504 34.6086 31.895 35.0695 32.34C35.5305 32.785 35.7609 33.371 35.7609 34.098C35.7609 34.629 35.632 35.094 35.3742 35.492C35.1242 35.891 34.8 36.196 34.4015 36.406C34.0109 36.61 33.6203 36.758 33.2297 36.852C32.8469 36.946 32.4758 36.992 32.1164 36.992C31.3742 36.992 30.6789 36.906 30.0305 36.735C29.9211 36.703 29.7687 36.688 29.5734 36.688C29.4172 36.688 29.2219 36.711 28.9875 36.758C28.9875 35.867 28.9406 34.86 28.8469 33.735Z" fill="white"/>
<path d="M48.4617 34.672C48.0945 35.274 47.6883 35.75 47.2429 36.102C46.8055 36.453 46.3836 36.688 45.9773 36.805C45.5711 36.93 45.1179 36.992 44.6179 36.992C43.1883 36.992 42.0555 36.535 41.2195 35.621C40.3836 34.699 39.9656 33.492 39.9656 32C39.9656 31.219 40.1101 30.492 40.3992 29.82C40.6883 29.141 41.0633 28.578 41.5242 28.133C41.9851 27.688 42.5008 27.34 43.0711 27.09C43.6414 26.832 44.2117 26.703 44.782 26.703C45.8679 26.703 46.7469 26.91 47.4187 27.324C48.0984 27.731 48.4383 28.25 48.4383 28.883C48.4383 29.211 48.3211 29.461 48.0867 29.633C47.8601 29.805 47.6062 29.891 47.325 29.891C47.0672 29.891 46.8679 29.832 46.7273 29.715C46.5867 29.598 46.5008 29.387 46.4695 29.082C46.3289 27.863 45.7273 27.254 44.6648 27.254C43.8836 27.254 43.2078 27.656 42.6375 28.461C42.0672 29.258 41.782 30.27 41.782 31.496C41.782 32.895 42.1023 34.016 42.7429 34.86C43.3914 35.696 44.1844 36.113 45.1219 36.113C45.614 36.113 46.1375 35.957 46.6922 35.645C47.2469 35.332 47.7156 34.926 48.0984 34.426C48.2156 34.442 48.2937 34.461 48.3328 34.485C48.3719 34.508 48.4148 34.57 48.4617 34.672Z" fill="white"/>
<path d="M52.5375 32.082C52.5375 30.551 52.9594 29.293 53.8031 28.309C54.7172 27.238 55.9125 26.703 57.389 26.703C58.0609 26.703 58.6742 26.809 59.2289 27.02C59.7836 27.223 60.2367 27.496 60.5883 27.84C60.9476 28.176 61.2484 28.57 61.4906 29.024C61.7406 29.477 61.9164 29.942 62.0179 30.418C62.1273 30.887 62.182 31.367 62.182 31.86C62.182 32.594 62.0609 33.297 61.8187 33.969C61.5687 34.641 61.1937 35.219 60.6937 35.703C59.8109 36.563 58.6937 36.992 57.3422 36.992C56.5687 36.992 55.8656 36.848 55.2328 36.559C54.6078 36.27 54.1039 35.887 53.7211 35.41C53.3383 34.934 53.0453 34.41 52.8422 33.84C52.639 33.27 52.5375 32.684 52.5375 32.082ZM57.0492 27.254C56.557 27.254 56.1273 27.383 55.7601 27.641C55.4008 27.891 55.1234 28.235 54.9281 28.672C54.7328 29.102 54.5883 29.555 54.4945 30.031C54.4086 30.508 54.3656 31.016 54.3656 31.555C54.3656 32.031 54.4281 32.539 54.5531 33.078C54.6781 33.61 54.8656 34.133 55.1156 34.649C55.3656 35.164 55.7133 35.594 56.1586 35.938C56.6039 36.274 57.1078 36.442 57.6703 36.442C57.9594 36.442 58.2523 36.375 58.5492 36.242C58.8461 36.102 59.1351 35.891 59.4164 35.61C59.6976 35.32 59.9242 34.914 60.0961 34.391C60.2758 33.867 60.3656 33.266 60.3656 32.586C60.3656 30.953 60.0609 29.656 59.4515 28.696C58.8422 27.735 58.0414 27.254 57.0492 27.254Z" fill="white"/>
<path d="M67.9805 29.27C67.957 28.653 67.8555 28.254 67.6758 28.074C67.5039 27.895 67.1094 27.774 66.4922 27.711C66.414 27.586 66.3984 27.449 66.4453 27.301C67.5547 27.153 68.4961 26.938 69.2695 26.656C69.4336 26.656 69.5312 26.703 69.5625 26.797C69.6094 26.938 69.6328 27.473 69.6328 28.403C69.6328 28.598 69.668 28.699 69.7383 28.707C69.7617 28.707 69.793 28.68 69.832 28.625C70.6914 27.344 71.539 26.703 72.375 26.703C72.875 26.703 73.2305 26.817 73.4414 27.043C73.6523 27.27 73.7578 27.524 73.7578 27.805C73.7578 28.086 73.6484 28.332 73.4297 28.543C73.2109 28.754 72.9609 28.86 72.6797 28.86C72.625 28.86 72.5664 28.852 72.5039 28.836C72.4492 28.82 72.3984 28.805 72.3515 28.789C72.3125 28.774 72.2656 28.746 72.2109 28.707C72.164 28.66 72.125 28.629 72.0937 28.613C72.0703 28.59 72.0312 28.547 71.9765 28.485C71.9297 28.422 71.8984 28.383 71.8828 28.367C71.875 28.352 71.8437 28.305 71.789 28.227L71.7187 28.121C71.6094 27.973 71.4492 27.899 71.2383 27.899C71.0351 27.899 70.6914 28.309 70.207 29.129C69.8711 29.723 69.6875 30.274 69.6562 30.781C69.6015 31.789 69.6015 32.957 69.6562 34.285C69.6719 34.621 69.6875 34.891 69.7031 35.094C69.7187 35.289 69.7578 35.469 69.8203 35.633C69.8906 35.797 69.9531 35.914 70.0078 35.985C70.0703 36.055 70.1875 36.121 70.3594 36.184C70.5312 36.238 70.6875 36.274 70.8281 36.289C70.9765 36.305 71.2109 36.324 71.5312 36.348C71.6015 36.418 71.6367 36.508 71.6367 36.617C71.6367 36.719 71.6015 36.805 71.5312 36.875C71.25 36.867 70.8125 36.844 70.2187 36.805C69.6328 36.774 69.168 36.758 68.8242 36.758C68.4961 36.758 68.0625 36.774 67.5234 36.805C66.9844 36.844 66.5742 36.867 66.293 36.875C66.2226 36.805 66.1875 36.719 66.1875 36.617C66.1875 36.508 66.2226 36.418 66.293 36.348C66.5664 36.332 66.7695 36.317 66.9023 36.301C67.043 36.285 67.1875 36.25 67.3359 36.196C67.4844 36.141 67.5859 36.074 67.6406 35.996C67.7031 35.918 67.7617 35.801 67.8164 35.645C67.8789 35.481 67.918 35.297 67.9336 35.094C67.9492 34.891 67.9648 34.621 67.9805 34.285C68.043 32.621 68.043 30.949 67.9805 29.27Z" fill="white"/>
<path d="M84.4312 34.168L84.4781 29.34C84.4781 28.988 84.4547 28.742 84.4078 28.602C84.3609 28.453 84.2555 28.285 84.0914 28.098C83.6148 27.551 82.9742 27.278 82.1695 27.278C81.1773 27.278 80.4273 27.66 79.9195 28.426C79.732 28.692 79.5719 29.11 79.4391 29.68C79.3062 30.25 79.2398 30.922 79.2398 31.696C79.2398 33.039 79.5172 34.121 80.0719 34.942C80.6266 35.754 81.2398 36.16 81.9117 36.16C82.5133 36.16 83.232 35.793 84.068 35.059C84.2164 34.918 84.3101 34.793 84.3492 34.684C84.3961 34.567 84.4234 34.395 84.4312 34.168ZM84.1617 35.61C83.5523 36.094 83.0289 36.446 82.5914 36.664C82.1617 36.883 81.7359 36.992 81.3141 36.992C80.1031 36.992 79.15 36.539 78.4547 35.633C77.7672 34.727 77.4234 33.551 77.4234 32.106C77.4234 30.488 77.9508 29.153 79.0055 28.098C79.4898 27.637 80.0016 27.289 80.5406 27.055C81.0875 26.82 81.7203 26.703 82.4391 26.703C82.6578 26.703 82.9078 26.738 83.1891 26.809C83.4781 26.879 83.7242 26.949 83.9273 27.02C84.1305 27.082 84.2398 27.113 84.2555 27.113C84.4039 27.113 84.4781 27.039 84.4781 26.891C84.4781 25.047 84.4625 23.727 84.4312 22.93C84.4156 22.555 84.3922 22.262 84.3609 22.051C84.3297 21.84 84.2945 21.664 84.2555 21.524C84.2164 21.383 84.1383 21.285 84.0211 21.231C83.9117 21.176 83.8062 21.141 83.7047 21.125C83.6031 21.11 83.4312 21.094 83.1891 21.078C83.0953 21.07 83.0211 21.067 82.9664 21.067C82.8336 20.934 82.7867 20.781 82.8258 20.61C83.2945 20.57 83.8531 20.488 84.5016 20.363C85.15 20.238 85.6148 20.117 85.8961 20C86.0836 20 86.1773 20.074 86.1773 20.223C86.1539 20.668 86.1226 21.387 86.0836 22.379C86.0601 22.981 86.0484 24.922 86.0484 28.203C86.0484 31.485 86.0601 33.426 86.0836 34.028C86.107 34.629 86.2164 35.047 86.4117 35.281C86.6148 35.508 87.0641 35.649 87.7594 35.703C87.8844 35.828 87.8844 35.949 87.7594 36.067C86.5875 36.207 85.7086 36.516 85.1226 36.992C84.9508 37.039 84.8062 37.039 84.6891 36.992C84.5328 36.453 84.4547 36 84.4547 35.633C84.4547 35.578 84.4391 35.547 84.4078 35.539C84.3766 35.524 84.3375 35.524 84.2906 35.539C84.2437 35.555 84.2008 35.578 84.1617 35.61Z" fill="white"/>
<path d="M105.286 30.09H109.575L107.267 23.434H107.196L104.677 29.645C104.622 29.778 104.646 29.887 104.747 29.973C104.857 30.051 105.036 30.09 105.286 30.09ZM102.567 35.106C102.497 35.246 102.47 35.375 102.485 35.492C102.509 35.602 102.536 35.696 102.567 35.774C102.599 35.852 102.665 35.922 102.767 35.985C102.876 36.047 102.978 36.098 103.071 36.137C103.165 36.176 103.282 36.207 103.423 36.231C103.571 36.254 103.704 36.274 103.821 36.289C103.939 36.305 104.071 36.317 104.22 36.324C104.29 36.395 104.325 36.488 104.325 36.606C104.325 36.715 104.29 36.805 104.22 36.875C103.985 36.867 103.587 36.844 103.025 36.805C102.462 36.774 101.997 36.758 101.63 36.758C101.286 36.758 100.864 36.774 100.364 36.805C99.8717 36.844 99.5007 36.867 99.2507 36.875C99.1807 36.805 99.1457 36.715 99.1457 36.606C99.1457 36.488 99.1807 36.395 99.2507 36.324C99.8367 36.285 100.31 36.149 100.669 35.914C101.036 35.68 101.364 35.227 101.653 34.555L107.22 21.442C107.501 21.442 107.919 21.281 108.474 20.961L113.489 34.93C113.575 35.164 113.677 35.367 113.794 35.539C113.919 35.703 114.04 35.832 114.157 35.926C114.275 36.02 114.427 36.098 114.614 36.16C114.81 36.215 114.97 36.25 115.095 36.266C115.228 36.281 115.411 36.301 115.646 36.324C115.716 36.395 115.751 36.488 115.751 36.606C115.751 36.715 115.716 36.805 115.646 36.875C115.435 36.867 114.989 36.844 114.31 36.805C113.638 36.774 113.114 36.758 112.739 36.758C112.38 36.758 111.814 36.774 111.04 36.805C110.275 36.844 109.794 36.867 109.599 36.875C109.528 36.805 109.493 36.715 109.493 36.606C109.493 36.488 109.528 36.395 109.599 36.324C110.364 36.27 110.841 36.207 111.028 36.137C111.411 35.996 111.528 35.707 111.38 35.27L109.857 30.852H104.853C104.587 30.852 104.396 30.895 104.278 30.981C104.169 31.067 104.079 31.199 104.009 31.379L102.567 35.106Z" fill="white"/>
<path d="M119.651 35.633C119.651 35.352 119.784 35.09 120.049 34.848C120.323 34.598 120.604 34.473 120.893 34.473C121.206 34.473 121.475 34.606 121.702 34.871C121.936 35.137 122.053 35.422 122.053 35.727C122.053 35.992 121.924 36.25 121.667 36.5C121.409 36.75 121.12 36.875 120.799 36.875C120.51 36.875 120.245 36.746 120.003 36.488C119.768 36.231 119.651 35.946 119.651 35.633Z" fill="white"/>
<path d="M130.477 34.145C130.492 34.66 130.524 35.055 130.571 35.328C130.625 35.594 130.742 35.805 130.922 35.961C131.102 36.11 131.301 36.203 131.52 36.242C131.739 36.274 132.086 36.301 132.563 36.324C132.633 36.395 132.668 36.488 132.668 36.606C132.668 36.715 132.633 36.805 132.563 36.875C132.219 36.867 131.727 36.844 131.086 36.805C130.446 36.774 129.907 36.758 129.469 36.758C129.024 36.758 128.473 36.774 127.817 36.805C127.168 36.844 126.68 36.867 126.352 36.875C126.282 36.805 126.246 36.715 126.246 36.606C126.246 36.488 126.282 36.395 126.352 36.324C126.828 36.301 127.176 36.274 127.395 36.242C127.614 36.203 127.813 36.11 127.992 35.961C128.172 35.805 128.285 35.594 128.332 35.328C128.387 35.055 128.422 34.66 128.438 34.145C128.485 32.153 128.508 30.457 128.508 29.059C128.508 27.606 128.485 25.883 128.438 23.891C128.422 23.375 128.387 22.985 128.332 22.719C128.285 22.446 128.172 22.235 127.992 22.086C127.813 21.93 127.614 21.836 127.395 21.805C127.176 21.766 126.828 21.735 126.352 21.711C126.282 21.641 126.246 21.551 126.246 21.442C126.246 21.324 126.282 21.231 126.352 21.16C126.696 21.168 127.188 21.192 127.828 21.231C128.469 21.262 129.008 21.278 129.446 21.278C129.891 21.278 130.438 21.262 131.086 21.231C131.742 21.192 132.235 21.168 132.563 21.16C132.633 21.231 132.668 21.324 132.668 21.442C132.668 21.551 132.633 21.641 132.563 21.711C132.242 21.727 131.996 21.742 131.824 21.758C131.653 21.774 131.477 21.809 131.297 21.863C131.117 21.918 130.989 21.988 130.91 22.074C130.832 22.16 130.754 22.289 130.676 22.461C130.606 22.625 130.555 22.82 130.524 23.047C130.5 23.258 130.485 23.539 130.477 23.891C130.43 25.696 130.407 27.426 130.407 29.082C130.407 30.481 130.43 32.168 130.477 34.145Z" fill="white"/>
<path d="M8.4351 48.649C7.2867 49.328 6.4976 50.028 6.0679 50.746C5.6461 51.457 5.4351 52.278 5.4351 53.207C5.4351 53.746 5.525 54.231 5.7047 54.66C5.8844 55.082 6.1187 55.414 6.4078 55.656C6.6969 55.899 6.9976 56.082 7.3101 56.207C7.6304 56.332 7.9429 56.395 8.2476 56.395C8.6617 56.395 9.0406 56.336 9.3844 56.219C9.7281 56.102 10.0523 55.914 10.357 55.656C10.6695 55.391 10.9469 55.121 11.189 54.848C11.4312 54.567 11.7203 54.196 12.0562 53.735L9.8297 50.699C9.0328 49.582 8.5679 48.899 8.4351 48.649ZM12.5133 54.426C11.9117 55.254 11.2594 55.891 10.5562 56.336C9.8609 56.774 9.0328 56.992 8.0719 56.992C7.4859 56.992 6.9195 56.91 6.3726 56.746C5.8336 56.574 5.3453 56.328 4.9078 56.008C4.4703 55.688 4.1187 55.27 3.8531 54.754C3.5953 54.238 3.4664 53.66 3.4664 53.02C3.4664 52.074 3.8258 51.199 4.5445 50.395C5.2633 49.59 6.4156 48.781 8.0015 47.969C7.1187 46.524 6.6773 45.317 6.6773 44.348C6.6773 43.988 6.7594 43.629 6.9234 43.27C7.0875 42.903 7.3179 42.567 7.6148 42.262C7.9195 41.957 8.3101 41.711 8.7867 41.524C9.2711 41.328 9.8023 41.231 10.3804 41.231C11.2554 41.231 11.9859 41.442 12.5719 41.863C13.1578 42.285 13.4508 42.86 13.4508 43.586C13.4508 44.203 13.15 44.906 12.5484 45.696C11.9469 46.477 11.0562 47.196 9.8765 47.852C10.3062 48.602 11.3375 50.074 12.9703 52.27C13.65 51.27 14.2711 50.246 14.8336 49.199C15.0133 48.863 15.1383 48.59 15.2086 48.379C15.2789 48.16 15.314 47.988 15.314 47.863C15.314 47.731 15.2437 47.633 15.1031 47.57C14.9703 47.5 14.8297 47.453 14.6812 47.43C14.5328 47.406 14.3062 47.387 14.0015 47.371C13.9312 47.301 13.8961 47.211 13.8961 47.102C13.8961 46.985 13.9312 46.891 14.0015 46.82C14.0953 46.828 14.2828 46.844 14.564 46.867C14.8453 46.883 15.1304 46.899 15.4195 46.914C15.7086 46.93 15.9742 46.938 16.2164 46.938C16.5445 46.938 16.9586 46.918 17.4586 46.879C17.9586 46.84 18.2164 46.82 18.232 46.82C18.3023 46.891 18.3375 46.985 18.3375 47.102C18.3375 47.211 18.3023 47.301 18.232 47.371C17.9508 47.387 17.7359 47.403 17.5875 47.418C17.4469 47.434 17.2906 47.473 17.1187 47.535C16.9469 47.598 16.814 47.668 16.7203 47.746C16.6265 47.817 16.5054 47.938 16.357 48.11C16.2164 48.281 16.0875 48.469 15.9703 48.672L15.4898 49.516C14.6773 50.953 13.982 52.086 13.4039 52.914L14.2945 54.192C14.6851 54.754 15.0445 55.164 15.3726 55.422C15.7008 55.688 15.9742 55.82 16.1929 55.82C16.8883 55.82 17.4781 55.348 17.9625 54.403C18.1344 54.403 18.3023 54.485 18.4664 54.649C18.1383 55.422 17.7398 56.008 17.2711 56.406C16.8023 56.797 16.3765 56.992 15.9937 56.992C15.7594 56.992 15.5601 56.977 15.3961 56.946C15.232 56.922 15.0289 56.863 14.7867 56.77C14.5445 56.676 14.2945 56.516 14.0367 56.289C13.7945 56.063 13.5289 55.762 13.2398 55.387L12.5133 54.426ZM9.4664 47.184C10.1773 46.715 10.7437 46.129 11.1656 45.426C11.5875 44.723 11.7984 44.125 11.7984 43.633C11.7984 43.086 11.6617 42.649 11.3883 42.32C11.1226 41.992 10.7476 41.828 10.2633 41.828C9.7633 41.828 9.3375 42.024 8.9859 42.414C8.6344 42.805 8.4586 43.371 8.4586 44.113C8.4586 44.442 8.5484 44.906 8.7281 45.508C8.9078 46.102 9.1539 46.66 9.4664 47.184Z" fill="white"/>
<path d="M36.1101 50.09H40.3992L38.0906 43.434H38.0203L35.5008 49.645C35.4461 49.778 35.4695 49.887 35.5711 49.973C35.6805 50.051 35.8601 50.09 36.1101 50.09ZM33.3914 55.106C33.3211 55.246 33.2937 55.375 33.3094 55.492C33.3328 55.602 33.3601 55.696 33.3914 55.774C33.4226 55.852 33.489 55.922 33.5906 55.985C33.7 56.047 33.8015 56.098 33.8953 56.137C33.989 56.176 34.1062 56.207 34.2469 56.231C34.3953 56.254 34.5281 56.274 34.6453 56.289C34.7625 56.305 34.8953 56.317 35.0437 56.324C35.114 56.395 35.1492 56.488 35.1492 56.606C35.1492 56.715 35.114 56.805 35.0437 56.875C34.8094 56.867 34.4109 56.844 33.8484 56.805C33.2859 56.774 32.8211 56.758 32.4539 56.758C32.1101 56.758 31.6883 56.774 31.1883 56.805C30.6961 56.844 30.325 56.867 30.075 56.875C30.0047 56.805 29.9695 56.715 29.9695 56.606C29.9695 56.488 30.0047 56.395 30.075 56.324C30.6609 56.285 31.1336 56.149 31.4929 55.914C31.8601 55.68 32.1883 55.227 32.4773 54.555L38.0437 41.442C38.325 41.442 38.7429 41.281 39.2976 40.961L44.3133 54.93C44.3992 55.164 44.5008 55.367 44.6179 55.539C44.7429 55.703 44.864 55.832 44.9812 55.926C45.0984 56.02 45.2508 56.098 45.4383 56.16C45.6336 56.215 45.7937 56.25 45.9187 56.266C46.0515 56.281 46.2351 56.301 46.4695 56.324C46.5398 56.395 46.575 56.488 46.575 56.606C46.575 56.715 46.5398 56.805 46.4695 56.875C46.2586 56.867 45.8133 56.844 45.1336 56.805C44.4617 56.774 43.9383 56.758 43.5633 56.758C43.2039 56.758 42.6375 56.774 41.864 56.805C41.0984 56.844 40.6179 56.867 40.4226 56.875C40.3523 56.805 40.3172 56.715 40.3172 56.606C40.3172 56.488 40.3523 56.395 40.4226 56.324C41.1883 56.27 41.6648 56.207 41.8523 56.137C42.2351 55.996 42.3523 55.707 42.2039 55.27L40.6805 50.852H35.6765C35.4109 50.852 35.2195 50.895 35.1023 50.981C34.9929 51.067 34.9031 51.199 34.8328 51.379L33.3914 55.106Z" fill="white"/>
<path d="M66.2953 54.074C66.3344 55.067 66.4398 55.672 66.6117 55.891C66.807 56.133 67.2523 56.278 67.9476 56.324C68.0101 56.387 68.0414 56.477 68.0414 56.594C68.0414 56.696 68.0101 56.789 67.9476 56.875C67.7054 56.875 67.2992 56.856 66.7289 56.817C66.1586 56.778 65.7172 56.758 65.4047 56.758C65.1078 56.758 64.6781 56.778 64.1156 56.817C63.5531 56.856 63.1664 56.875 62.9554 56.875C62.8929 56.789 62.8617 56.696 62.8617 56.594C62.8617 56.477 62.8929 56.387 62.9554 56.324C63.5883 56.278 63.9945 56.133 64.1742 55.891C64.3461 55.656 64.4515 55.051 64.4906 54.074C64.5453 52.426 64.5453 50.778 64.4906 49.129C64.4515 48.457 64.3773 48.008 64.2679 47.781C64.1429 47.539 63.9203 47.418 63.6 47.418H59.475C59.4594 48.262 59.4554 49.371 59.4633 50.746C59.4789 52.403 59.4906 53.512 59.4984 54.074C59.5297 55.059 59.6351 55.668 59.8148 55.903C59.9945 56.137 60.4476 56.278 61.1742 56.324C61.2367 56.387 61.2679 56.477 61.2679 56.594C61.2679 56.696 61.2367 56.789 61.1742 56.875C60.9476 56.875 60.5414 56.856 59.9554 56.817C59.3695 56.778 58.9203 56.758 58.6078 56.758C58.3344 56.758 57.9242 56.778 57.3773 56.817C56.8304 56.856 56.4398 56.875 56.2054 56.875C56.0258 56.696 56.0258 56.512 56.2054 56.324C56.8304 56.278 57.2289 56.133 57.4008 55.891C57.557 55.664 57.6547 55.059 57.6937 54.074C57.7015 53.512 57.7133 52.403 57.7289 50.746C57.7367 49.371 57.7328 48.262 57.7172 47.418H52.9242C52.8929 50.457 52.9008 52.676 52.9476 54.074C52.9867 55.051 53.0804 55.653 53.2289 55.879C53.3929 56.129 53.7484 56.278 54.2953 56.324C54.475 56.512 54.475 56.696 54.2953 56.875C54.0062 56.875 53.6351 56.856 53.182 56.817C52.7289 56.778 52.3773 56.758 52.1273 56.758C51.8617 56.758 51.4672 56.778 50.9437 56.817C50.4203 56.856 50.0414 56.875 49.807 56.875C49.7367 56.774 49.7015 56.68 49.7015 56.594C49.7015 56.485 49.7367 56.395 49.807 56.324C50.4242 56.278 50.8187 56.133 50.9906 55.891C51.1625 55.649 51.264 55.043 51.2953 54.074C51.3422 52.738 51.3422 50.52 51.2953 47.418H49.6781C49.6 47.418 49.5609 47.371 49.5609 47.278V47.207C49.5609 46.949 49.7367 46.82 50.0883 46.82H51.2953C51.3031 45.594 51.4711 44.465 51.7992 43.434C52.1898 42.254 52.8187 41.399 53.6859 40.867C54.2015 40.563 54.7484 40.41 55.3265 40.41C56.139 40.41 56.8851 40.559 57.5648 40.856C58.2289 41.145 58.6508 41.453 58.8304 41.781L58.9945 41.57C59.8383 40.524 60.932 40 62.2758 40C63.2054 40 64.0726 40.258 64.8773 40.774C65.7211 41.313 66.1429 41.938 66.1429 42.649C66.1429 42.899 66.0492 43.125 65.8617 43.328C65.6742 43.531 65.4476 43.633 65.182 43.633C64.8226 43.633 64.5414 43.516 64.3383 43.281C64.1351 43.039 63.9867 42.637 63.8929 42.074C63.8383 41.653 63.6234 41.309 63.2484 41.043C62.8812 40.785 62.4867 40.656 62.0648 40.656C61.7836 40.656 61.4594 40.789 61.0922 41.055C60.7094 41.328 60.3851 41.707 60.1195 42.192C59.7054 42.949 59.4984 43.918 59.4984 45.098V46.82H64.0101C64.9554 46.82 65.6664 46.719 66.1429 46.516C66.307 46.516 66.389 46.563 66.389 46.656C66.3422 48.047 66.3109 48.871 66.2953 49.129C66.2406 50.778 66.2406 52.426 66.2953 54.074ZM52.9242 46.82H57.6937V46.106C57.6937 45.004 57.8226 44.059 58.0804 43.27C57.9008 43.27 57.7445 43.215 57.6117 43.106C57.4945 43.012 57.4008 42.906 57.3304 42.789C57.2758 42.703 57.1976 42.543 57.0961 42.309C56.8383 41.723 56.6312 41.371 56.475 41.254C56.1703 41.059 55.7679 40.961 55.2679 40.961C55.1195 40.961 54.9398 41.02 54.7289 41.137C54.5023 41.262 54.2562 41.508 53.9906 41.875C53.725 42.242 53.5062 42.723 53.3344 43.317C53.1234 44.067 52.9945 45.043 52.9476 46.246C52.9476 46.285 52.9398 46.477 52.9242 46.82Z" fill="white"/>
<path d="M72.9961 54.285C73.0429 52.27 73.0664 50.254 73.0664 48.238C73.0664 45.613 73.0429 43.844 72.9961 42.93C72.9804 42.633 72.9609 42.395 72.9375 42.215C72.9218 42.028 72.8906 41.863 72.8437 41.723C72.7968 41.574 72.7461 41.465 72.6914 41.395C72.6367 41.324 72.5468 41.266 72.4218 41.219C72.3047 41.164 72.1836 41.129 72.0586 41.113C71.9414 41.098 71.7695 41.082 71.5429 41.067C71.4414 40.965 71.414 40.813 71.4609 40.61C71.9297 40.57 72.4883 40.488 73.1367 40.363C73.7929 40.238 74.2617 40.117 74.5429 40C74.7461 40 74.8476 40.074 74.8476 40.223C74.8086 40.629 74.7773 41.348 74.7539 42.379C74.7148 44.41 74.6953 46.57 74.6953 48.86C74.6953 50.891 74.7148 52.699 74.7539 54.285C74.7617 54.629 74.7734 54.899 74.789 55.094C74.8047 55.297 74.8398 55.481 74.8945 55.645C74.957 55.801 75.0156 55.918 75.0703 55.996C75.125 56.067 75.2265 56.129 75.375 56.184C75.5234 56.238 75.664 56.274 75.7968 56.289C75.9297 56.297 76.1328 56.309 76.4062 56.324C76.4765 56.395 76.5117 56.488 76.5117 56.606C76.5117 56.715 76.4765 56.805 76.4062 56.875C76.125 56.867 75.7187 56.844 75.1875 56.805C74.664 56.774 74.2226 56.758 73.8633 56.758C73.5039 56.758 73.0625 56.774 72.539 56.805C72.0156 56.844 71.6172 56.867 71.3437 56.875C71.2734 56.805 71.2383 56.715 71.2383 56.606C71.2383 56.488 71.2734 56.395 71.3437 56.324C71.6172 56.309 71.8203 56.297 71.9531 56.289C72.0859 56.274 72.2265 56.238 72.375 56.184C72.5234 56.129 72.625 56.067 72.6797 55.996C72.7343 55.918 72.789 55.801 72.8437 55.645C72.9062 55.481 72.9453 55.297 72.9609 55.094C72.9765 54.891 72.9883 54.621 72.9961 54.285Z" fill="white"/>
<path d="M81.3961 42.379C81.3961 42.098 81.5328 41.836 81.8062 41.594C82.0797 41.352 82.3609 41.231 82.65 41.231C82.9625 41.231 83.232 41.363 83.4586 41.629C83.6851 41.887 83.7984 42.168 83.7984 42.473C83.7984 42.738 83.6695 43 83.4117 43.258C83.1617 43.508 82.8765 43.633 82.5562 43.633C82.2672 43.633 82.0015 43.504 81.7594 43.246C81.5172 42.981 81.3961 42.692 81.3961 42.379ZM83.4586 54.145C83.4664 54.496 83.4781 54.781 83.4937 55C83.5094 55.219 83.5484 55.414 83.6109 55.586C83.6734 55.75 83.732 55.875 83.7867 55.961C83.8492 56.039 83.9547 56.11 84.1031 56.172C84.2594 56.227 84.4078 56.262 84.5484 56.278C84.689 56.293 84.9039 56.309 85.1929 56.324C85.2633 56.395 85.2984 56.488 85.2984 56.606C85.2984 56.715 85.2633 56.805 85.1929 56.875C84.8883 56.867 84.4703 56.844 83.939 56.805C83.4078 56.774 82.9625 56.758 82.6031 56.758C82.2359 56.758 81.7789 56.774 81.232 56.805C80.6851 56.844 80.2672 56.867 79.9781 56.875C79.9078 56.805 79.8726 56.715 79.8726 56.606C79.8726 56.488 79.9078 56.395 79.9781 56.324C80.2672 56.301 80.4781 56.281 80.6109 56.266C80.7515 56.242 80.9 56.203 81.0562 56.149C81.2125 56.086 81.3179 56.016 81.3726 55.938C81.4351 55.86 81.4937 55.738 81.5484 55.574C81.6109 55.403 81.65 55.211 81.6656 55C81.689 54.781 81.7047 54.496 81.7125 54.145C81.7437 53.192 81.7594 52.297 81.7594 51.461C81.7594 51.031 81.7437 50.34 81.7125 49.387C81.6969 49.02 81.6734 48.742 81.6422 48.555C81.6109 48.367 81.5289 48.215 81.3961 48.098C81.2711 47.981 81.1226 47.903 80.9508 47.863C80.7867 47.824 80.5211 47.789 80.1539 47.758C80.0914 47.57 80.0758 47.426 80.107 47.324C81.5289 47.145 82.5914 46.914 83.2945 46.633C83.5054 46.633 83.6109 46.688 83.6109 46.797C83.5484 47.656 83.4976 48.485 83.4586 49.281C83.4273 49.93 83.4117 50.664 83.4117 51.485C83.4117 51.766 83.4195 52.274 83.4351 53.008C83.4508 53.735 83.4586 54.113 83.4586 54.145Z" fill="white"/>
<path d="M95.0697 51.672L93.1007 52.153C92.3117 52.348 91.7297 52.668 91.3547 53.113C90.9877 53.559 90.8037 54.039 90.8037 54.555C90.8037 54.961 90.9637 55.352 91.2847 55.727C91.6127 56.094 92.0417 56.278 92.5737 56.278C92.6597 56.278 92.7497 56.266 92.8427 56.242C92.9447 56.219 93.0497 56.18 93.1597 56.125C93.2767 56.063 93.3777 56.008 93.4637 55.961C93.5497 55.906 93.6557 55.828 93.7807 55.727L94.0737 55.516C94.1357 55.469 94.2337 55.391 94.3667 55.281L94.6357 55.059C94.8387 54.91 94.9447 54.715 94.9527 54.473L95.0697 51.672ZM94.9527 55.656H94.9057L94.4487 56.02C93.9407 56.41 93.5187 56.668 93.1827 56.793C92.8547 56.926 92.4287 56.992 91.9057 56.992C89.9997 56.992 89.0457 56.211 89.0457 54.649C89.0457 53.891 89.3897 53.227 90.0777 52.656C90.7567 52.094 91.6707 51.684 92.8197 51.426L94.9757 50.946C95.0537 50.922 95.0927 50.754 95.0927 50.442C95.0927 49.824 95.0387 49.297 94.9287 48.86C94.8197 48.414 94.6707 48.082 94.4837 47.863C94.2957 47.637 94.1047 47.477 93.9097 47.383C93.7137 47.281 93.5107 47.231 93.2997 47.231C92.8237 47.231 92.3937 47.328 92.0107 47.524C91.6357 47.711 91.4487 47.973 91.4487 48.309C91.4487 48.52 91.4637 48.672 91.4957 48.766C91.5417 48.86 91.5657 48.996 91.5657 49.176C91.5657 49.356 91.4637 49.551 91.2607 49.762C91.0657 49.965 90.8157 50.067 90.5107 50.067C90.2457 50.067 90.0267 49.981 89.8547 49.809C89.6827 49.629 89.5967 49.403 89.5967 49.129C89.5967 48.528 90.0067 47.973 90.8277 47.465C91.6557 46.957 92.5417 46.703 93.4877 46.703C95.7457 46.703 96.8317 48 96.7457 50.594L96.6277 53.992C96.6127 54.477 96.6207 54.856 96.6517 55.129C96.6907 55.403 96.7847 55.625 96.9327 55.797C97.0817 55.961 97.2997 56.043 97.5887 56.043C97.7297 56.043 97.8467 56.012 97.9407 55.949C98.0347 55.879 98.1047 55.813 98.1517 55.75C98.2067 55.688 98.2497 55.656 98.2807 55.656C98.3347 55.656 98.4057 55.688 98.4917 55.75C98.5777 55.813 98.6207 55.883 98.6207 55.961C98.6207 56.016 98.5387 56.121 98.3747 56.278C98.2177 56.434 97.9797 56.594 97.6597 56.758C97.3387 56.914 97.0107 56.992 96.6747 56.992C95.7847 56.992 95.2097 56.547 94.9527 55.656Z" fill="white"/>
<path d="M102.462 46.938H103.517C103.517 46.188 103.509 45.574 103.493 45.098C103.485 44.621 103.474 44.293 103.458 44.113C103.45 43.934 103.446 43.828 103.446 43.797C103.446 43.727 103.478 43.672 103.54 43.633C103.61 43.586 103.728 43.539 103.892 43.492C104.056 43.438 104.173 43.395 104.243 43.363C104.337 43.324 104.45 43.27 104.583 43.199L104.923 43.024C105.017 42.977 105.087 42.953 105.134 42.953C105.243 42.953 105.298 43.028 105.298 43.176C105.251 43.762 105.22 44.563 105.204 45.578L105.181 46.938H107.935C108.052 46.938 108.11 46.988 108.11 47.09V47.348C108.11 47.442 108.052 47.516 107.935 47.57C107.817 47.617 107.689 47.641 107.548 47.641H105.181C105.048 50.625 105.005 52.696 105.052 53.852C105.083 54.633 105.146 55.18 105.239 55.492C105.341 55.805 105.536 55.961 105.825 55.961C106.122 55.961 106.458 55.887 106.833 55.738C107.216 55.582 107.56 55.387 107.864 55.153C107.942 55.176 107.997 55.207 108.028 55.246C108.06 55.285 108.087 55.363 108.11 55.481C107.673 55.973 107.181 56.348 106.634 56.606C106.087 56.863 105.544 56.992 105.005 56.992C104.466 56.992 104.064 56.813 103.798 56.453C103.532 56.094 103.399 55.516 103.399 54.719C103.399 54.313 103.419 53.238 103.458 51.496C103.497 49.754 103.517 48.469 103.517 47.641H102.181C102.095 47.641 102.052 47.59 102.052 47.488V47.278C102.052 47.051 102.189 46.938 102.462 46.938Z" fill="white"/>
<path d="M113.663 50.547L118.303 50.418C118.522 50.41 118.632 50.309 118.632 50.113C118.632 49.207 118.421 48.504 117.999 48.004C117.577 47.504 117.069 47.254 116.475 47.254C116.233 47.254 115.983 47.309 115.725 47.418C115.467 47.52 115.198 47.688 114.917 47.922C114.635 48.156 114.382 48.5 114.155 48.953C113.928 49.406 113.764 49.938 113.663 50.547ZM120.003 54.625C120.253 54.649 120.413 54.774 120.483 55C120.007 55.625 119.428 56.113 118.749 56.465C118.069 56.817 117.311 56.992 116.475 56.992C114.882 56.992 113.674 56.508 112.854 55.539C112.135 54.696 111.776 53.559 111.776 52.129C111.776 51.293 111.917 50.524 112.198 49.82C112.487 49.117 112.858 48.547 113.311 48.11C113.772 47.664 114.276 47.32 114.823 47.078C115.37 46.828 115.921 46.703 116.475 46.703C117.092 46.703 117.635 46.785 118.104 46.949C118.581 47.106 118.964 47.313 119.253 47.57C119.549 47.82 119.788 48.129 119.967 48.496C120.155 48.856 120.284 49.215 120.354 49.574C120.424 49.934 120.46 50.32 120.46 50.735C120.46 50.852 120.421 50.949 120.342 51.028C120.264 51.106 120.159 51.145 120.026 51.145L113.592 51.238C113.592 52.598 113.835 53.668 114.319 54.449C114.655 54.996 115.081 55.41 115.596 55.692C116.104 55.973 116.589 56.113 117.049 56.113C117.659 56.113 118.182 55.992 118.62 55.75C119.057 55.5 119.518 55.125 120.003 54.625Z" fill="white"/>
<path d="M124.864 53.735C125.02 53.578 125.172 53.57 125.321 53.711C125.571 54.727 125.907 55.438 126.328 55.844C126.477 55.992 126.707 56.133 127.02 56.266C127.332 56.399 127.688 56.465 128.086 56.465C128.555 56.465 129.008 56.289 129.446 55.938C129.883 55.586 130.102 55.149 130.102 54.625C130.102 54.125 129.934 53.711 129.598 53.383C129.278 53.07 128.645 52.715 127.699 52.317C126.77 51.926 126.117 51.524 125.742 51.11C125.367 50.688 125.18 50.074 125.18 49.27C125.18 48.551 125.5 47.946 126.141 47.453C126.789 46.953 127.547 46.703 128.414 46.703C128.766 46.703 129.125 46.731 129.492 46.785C129.867 46.84 130.246 46.91 130.629 46.996C131.012 47.082 131.266 47.137 131.391 47.16C131.383 47.34 131.36 47.692 131.321 48.215C131.289 48.738 131.274 49.153 131.274 49.457C131.203 49.528 131.117 49.567 131.016 49.574C130.922 49.582 130.84 49.551 130.77 49.481C130.543 47.981 129.758 47.231 128.414 47.231C128.008 47.231 127.621 47.403 127.254 47.746C126.895 48.082 126.715 48.477 126.715 48.93C126.715 49.492 126.907 49.93 127.289 50.242C127.657 50.539 128.258 50.848 129.094 51.168C129.961 51.504 130.625 51.895 131.086 52.34C131.547 52.785 131.778 53.371 131.778 54.098C131.778 54.629 131.649 55.094 131.391 55.492C131.141 55.891 130.817 56.196 130.418 56.406C130.028 56.61 129.637 56.758 129.246 56.852C128.864 56.946 128.492 56.992 128.133 56.992C127.391 56.992 126.696 56.906 126.047 56.735C125.938 56.703 125.785 56.688 125.59 56.688C125.434 56.688 125.239 56.711 125.004 56.758C125.004 55.867 124.957 54.86 124.864 53.735Z" fill="white"/>
</svg>
