<svg width="159" height="256" viewBox="0 0 159 256" fill="none" xmlns="http://www.w3.org/2000/svg">
<path d="M79.57 47.2188C53.04 97.2188 26.52 147.219 0 197.219C7.96 193.739 15.92 190.259 23.88 186.789C32.67 171.159 41.46 155.529 50.25 139.889C69.15 139.699 88.05 139.499 106.96 139.309L134.35 186.789C142.26 190.269 150.18 193.749 158.09 197.219C131.92 147.219 105.74 97.2188 79.57 47.2188ZM63.13 115.039L79.04 85.5587L94.95 115.039H63.12H63.13Z" fill="#9B9B9B"/>
<path d="M22.96 96.98C31.92 93.44 40.87 89.89 49.83 86.35C59.74 67.39 69.66 48.44 79.57 29.48C89.4 48.44 99.22 67.39 109.05 86.35C117.75 89.89 126.44 93.44 135.14 96.98C116.61 64.65 98.09 32.33 79.57 0C60.7 32.33 41.83 64.65 22.96 96.98Z" fill="#BB3539"/>
<path d="M41.22 178.961C47.74 165.901 54.26 152.841 60.78 139.781L50.25 139.891L23.88 186.791C29.66 184.181 35.44 181.571 41.21 178.961H41.22Z" fill="url(#paint0_linear_7_24)"/>
<path d="M134.35 186.779L117.92 178.949L96.53 139.399C100.01 139.359 103.49 139.329 106.96 139.289L134.35 186.769V186.779Z" fill="url(#paint1_linear_7_24)"/>
<path d="M55.5906 208.332H59.8797L57.5711 201.676H57.5008L54.9812 207.887C54.9266 208.02 54.95 208.129 55.0516 208.215C55.1609 208.293 55.3406 208.332 55.5906 208.332ZM52.8719 213.348C52.8016 213.488 52.7742 213.617 52.7898 213.734C52.8133 213.844 52.8406 213.938 52.8719 214.016C52.9031 214.094 52.9695 214.164 53.0711 214.227C53.1805 214.289 53.282 214.34 53.3758 214.379C53.4695 214.418 53.5867 214.449 53.7273 214.473C53.8758 214.496 54.0086 214.516 54.1258 214.531C54.243 214.547 54.3758 214.559 54.5242 214.566C54.5945 214.637 54.6297 214.73 54.6297 214.848C54.6297 214.957 54.5945 215.047 54.5242 215.117C54.2898 215.109 53.8914 215.086 53.3289 215.047C52.7664 215.016 52.3016 215 51.9344 215C51.5906 215 51.1687 215.016 50.6687 215.047C50.1766 215.086 49.8055 215.109 49.5555 215.117C49.4852 215.047 49.45 214.957 49.45 214.848C49.45 214.73 49.4852 214.637 49.5555 214.566C50.1414 214.527 50.6141 214.391 50.9734 214.156C51.3406 213.922 51.6687 213.469 51.9578 212.797L57.5242 199.684C57.8055 199.684 58.2234 199.523 58.7781 199.203L63.7937 213.172C63.8797 213.406 63.9812 213.609 64.0984 213.781C64.2234 213.945 64.3445 214.074 64.4617 214.168C64.5789 214.262 64.7312 214.34 64.9187 214.402C65.1141 214.457 65.2742 214.492 65.3992 214.508C65.532 214.523 65.7156 214.543 65.95 214.566C66.0203 214.637 66.0555 214.73 66.0555 214.848C66.0555 214.957 66.0203 215.047 65.95 215.117C65.7391 215.109 65.2937 215.086 64.6141 215.047C63.9422 215.016 63.4187 215 63.0437 215C62.6844 215 62.118 215.016 61.3445 215.047C60.5789 215.086 60.0984 215.109 59.9031 215.117C59.8328 215.047 59.7977 214.957 59.7977 214.848C59.7977 214.73 59.8328 214.637 59.9031 214.566C60.6687 214.512 61.1453 214.449 61.3328 214.379C61.7156 214.238 61.8328 213.949 61.6844 213.512L60.1609 209.094H55.157C54.8914 209.094 54.7 209.137 54.5828 209.223C54.4734 209.309 54.3836 209.441 54.3133 209.621L52.8719 213.348Z" fill="white"/>
<path d="M70.7406 212.527C70.7875 210.512 70.8109 208.496 70.8109 206.48C70.8109 203.855 70.7875 202.086 70.7406 201.172C70.725 200.875 70.7055 200.637 70.682 200.457C70.6664 200.27 70.6352 200.105 70.5883 199.965C70.5414 199.816 70.4906 199.707 70.4359 199.637C70.3813 199.566 70.2914 199.508 70.1664 199.461C70.0492 199.406 69.9281 199.371 69.8031 199.355C69.6859 199.34 69.5141 199.324 69.2875 199.309C69.1859 199.207 69.1586 199.055 69.2055 198.852C69.6742 198.812 70.2328 198.73 70.8813 198.605C71.5375 198.48 72.0063 198.359 72.2875 198.242C72.4906 198.242 72.5922 198.316 72.5922 198.465C72.5531 198.871 72.5219 199.59 72.4984 200.621C72.4594 202.652 72.4398 204.812 72.4398 207.102C72.4398 209.133 72.4594 210.941 72.4984 212.527C72.5063 212.871 72.518 213.141 72.5336 213.336C72.5492 213.539 72.5844 213.723 72.6391 213.887C72.7016 214.043 72.7602 214.16 72.8148 214.238C72.8695 214.309 72.9711 214.371 73.1195 214.426C73.268 214.48 73.4086 214.516 73.5414 214.531C73.6742 214.539 73.8773 214.551 74.1508 214.566C74.2211 214.637 74.2563 214.73 74.2563 214.848C74.2563 214.957 74.2211 215.047 74.1508 215.117C73.8695 215.109 73.4633 215.086 72.932 215.047C72.4086 215.016 71.9672 215 71.6078 215C71.2484 215 70.807 215.016 70.2836 215.047C69.7602 215.086 69.3617 215.109 69.0883 215.117C69.018 215.047 68.9828 214.957 68.9828 214.848C68.9828 214.73 69.018 214.637 69.0883 214.566C69.3617 214.551 69.5648 214.539 69.6977 214.531C69.8305 214.516 69.9711 214.48 70.1195 214.426C70.268 214.371 70.3695 214.309 70.4242 214.238C70.4789 214.16 70.5336 214.043 70.5883 213.887C70.6508 213.723 70.6898 213.539 70.7055 213.336C70.7211 213.133 70.7328 212.863 70.7406 212.527Z" fill="white"/>
<path d="M79.1406 200.621C79.1406 200.34 79.2773 200.078 79.5508 199.836C79.8242 199.594 80.1055 199.473 80.3945 199.473C80.707 199.473 80.9766 199.605 81.2031 199.871C81.4297 200.129 81.543 200.41 81.543 200.715C81.543 200.98 81.4141 201.242 81.1562 201.5C80.9062 201.75 80.6211 201.875 80.3008 201.875C80.0117 201.875 79.7461 201.746 79.5039 201.488C79.2617 201.223 79.1406 200.934 79.1406 200.621ZM81.2031 212.387C81.2109 212.738 81.2227 213.023 81.2383 213.242C81.2539 213.461 81.293 213.656 81.3555 213.828C81.418 213.992 81.4766 214.117 81.5312 214.203C81.5938 214.281 81.6992 214.352 81.8477 214.414C82.0039 214.469 82.1523 214.504 82.293 214.52C82.4336 214.535 82.6484 214.551 82.9375 214.566C83.0078 214.637 83.043 214.73 83.043 214.848C83.043 214.957 83.0078 215.047 82.9375 215.117C82.6328 215.109 82.2148 215.086 81.6836 215.047C81.1523 215.016 80.707 215 80.3477 215C79.9805 215 79.5234 215.016 78.9766 215.047C78.4297 215.086 78.0117 215.109 77.7227 215.117C77.6523 215.047 77.6172 214.957 77.6172 214.848C77.6172 214.73 77.6523 214.637 77.7227 214.566C78.0117 214.543 78.2227 214.523 78.3555 214.508C78.4961 214.484 78.6445 214.445 78.8008 214.391C78.957 214.328 79.0625 214.258 79.1172 214.18C79.1797 214.102 79.2383 213.98 79.293 213.816C79.3555 213.645 79.3945 213.453 79.4102 213.242C79.4336 213.023 79.4492 212.738 79.457 212.387C79.4883 211.434 79.5039 210.539 79.5039 209.703C79.5039 209.273 79.4883 208.582 79.457 207.629C79.4414 207.262 79.418 206.984 79.3867 206.797C79.3555 206.609 79.2734 206.457 79.1406 206.34C79.0156 206.223 78.8672 206.145 78.6953 206.105C78.5312 206.066 78.2656 206.031 77.8984 206C77.8359 205.812 77.8203 205.668 77.8516 205.566C79.2734 205.387 80.3359 205.156 81.0391 204.875C81.25 204.875 81.3555 204.93 81.3555 205.039C81.293 205.898 81.2422 206.727 81.2031 207.523C81.1719 208.172 81.1562 208.906 81.1562 209.727C81.1562 210.008 81.1641 210.516 81.1797 211.25C81.1953 211.977 81.2031 212.355 81.2031 212.387Z" fill="white"/>
<path d="M95.1227 212.914C94.7555 213.516 94.3492 213.992 93.9039 214.344C93.4664 214.695 93.0445 214.93 92.6383 215.047C92.232 215.172 91.7789 215.234 91.2789 215.234C89.8492 215.234 88.7164 214.777 87.8805 213.863C87.0445 212.941 86.6266 211.734 86.6266 210.242C86.6266 209.461 86.7711 208.734 87.0602 208.062C87.3492 207.383 87.7242 206.82 88.1852 206.375C88.6461 205.93 89.1617 205.582 89.732 205.332C90.3023 205.074 90.8727 204.945 91.443 204.945C92.5289 204.945 93.4078 205.152 94.0797 205.566C94.7594 205.973 95.0992 206.492 95.0992 207.125C95.0992 207.453 94.982 207.703 94.7477 207.875C94.5211 208.047 94.2672 208.133 93.9859 208.133C93.7281 208.133 93.5289 208.074 93.3883 207.957C93.2477 207.84 93.1617 207.629 93.1305 207.324C92.9898 206.105 92.3883 205.496 91.3258 205.496C90.5445 205.496 89.8687 205.898 89.2984 206.703C88.7281 207.5 88.443 208.512 88.443 209.738C88.443 211.137 88.7633 212.258 89.4039 213.102C90.0523 213.938 90.8453 214.355 91.7828 214.355C92.275 214.355 92.7984 214.199 93.3531 213.887C93.9078 213.574 94.3766 213.168 94.7594 212.668C94.8766 212.684 94.9547 212.703 94.9937 212.727C95.0328 212.75 95.0758 212.812 95.1227 212.914Z" fill="white"/>
<path d="M100.968 208.789L105.609 208.66C105.827 208.652 105.937 208.551 105.937 208.355C105.937 207.449 105.726 206.746 105.304 206.246C104.882 205.746 104.374 205.496 103.78 205.496C103.538 205.496 103.288 205.551 103.03 205.66C102.773 205.762 102.503 205.93 102.222 206.164C101.941 206.398 101.687 206.742 101.46 207.195C101.234 207.648 101.07 208.18 100.968 208.789ZM107.308 212.867C107.558 212.891 107.718 213.016 107.788 213.242C107.312 213.867 106.734 214.355 106.054 214.707C105.374 215.059 104.616 215.234 103.78 215.234C102.187 215.234 100.98 214.75 100.159 213.781C99.4406 212.938 99.0812 211.801 99.0812 210.371C99.0812 209.535 99.2219 208.766 99.5031 208.062C99.7922 207.359 100.163 206.789 100.616 206.352C101.077 205.906 101.581 205.562 102.128 205.32C102.675 205.07 103.226 204.945 103.78 204.945C104.398 204.945 104.941 205.027 105.409 205.191C105.886 205.348 106.269 205.555 106.558 205.812C106.855 206.062 107.093 206.371 107.273 206.738C107.46 207.098 107.589 207.457 107.659 207.816C107.73 208.176 107.765 208.562 107.765 208.977C107.765 209.094 107.726 209.191 107.648 209.27C107.57 209.348 107.464 209.387 107.331 209.387L100.898 209.48C100.898 210.84 101.14 211.91 101.624 212.691C101.96 213.238 102.386 213.652 102.902 213.934C103.409 214.215 103.894 214.355 104.355 214.355C104.964 214.355 105.487 214.234 105.925 213.992C106.362 213.742 106.823 213.367 107.308 212.867Z" fill="white"/>
<path d="M15.6438 232.387C15.6516 232.73 15.6711 233 15.7023 233.195C15.7336 233.383 15.8 233.578 15.9016 233.781C16.0109 233.977 16.1633 234.125 16.3586 234.227C16.5617 234.32 16.8313 234.398 17.1672 234.461C17.5109 234.516 17.9406 234.543 18.4563 234.543C19.1672 234.543 19.8273 234.48 20.4367 234.355C21.0461 234.223 21.632 234.004 22.1945 233.699C22.757 233.387 23.2375 232.996 23.6359 232.527C24.0344 232.051 24.3508 231.445 24.5852 230.711C24.8195 229.969 24.9367 229.125 24.9367 228.18C24.9367 227.406 24.8586 226.648 24.7023 225.906C24.5461 225.156 24.2883 224.422 23.9289 223.703C23.5695 222.977 23.1242 222.344 22.593 221.805C22.0617 221.258 21.3898 220.816 20.5773 220.48C19.7648 220.145 18.8586 219.977 17.8586 219.977C17.4992 219.977 17.1945 219.996 16.9445 220.035C16.7023 220.066 16.4992 220.121 16.3352 220.199C16.1789 220.277 16.0539 220.367 15.9602 220.469C15.8742 220.57 15.8078 220.707 15.7609 220.879C15.7219 221.043 15.6945 221.211 15.6789 221.383C15.6633 221.555 15.6516 221.77 15.6438 222.027V222.133C15.5813 224.82 15.55 226.551 15.55 227.324C15.55 228.949 15.5813 230.637 15.6438 232.387ZM14.5891 219.52C14.8313 219.52 15.4367 219.5 16.4055 219.461C17.3742 219.422 18.1594 219.402 18.7609 219.402C19.8938 219.402 20.9719 219.621 21.9953 220.059C23.0266 220.496 23.9133 221.086 24.6555 221.828C25.3977 222.562 25.9875 223.438 26.425 224.453C26.8703 225.461 27.093 226.512 27.093 227.605C27.093 228.738 26.925 229.754 26.5891 230.652C26.2531 231.543 25.8195 232.262 25.2883 232.809C24.7648 233.355 24.1438 233.809 23.425 234.168C22.7141 234.527 22.0109 234.777 21.3156 234.918C20.6281 235.051 19.9211 235.117 19.1945 235.117C18.2336 235.117 17.2727 235.098 16.3117 235.059C15.3508 235.02 14.7922 235 14.6359 235C14.1906 235 13.6398 235.016 12.9836 235.047C12.3352 235.086 11.8469 235.109 11.5188 235.117C11.4484 235.047 11.4133 234.957 11.4133 234.848C11.4133 234.73 11.4484 234.637 11.5188 234.566C11.7531 234.559 11.9406 234.551 12.0813 234.543C12.2297 234.527 12.382 234.508 12.5383 234.484C12.6945 234.453 12.8117 234.418 12.8898 234.379C12.9758 234.332 13.0617 234.273 13.1477 234.203C13.2414 234.125 13.3078 234.039 13.3469 233.945C13.3938 233.844 13.4367 233.715 13.4758 233.559C13.5148 233.402 13.5383 233.234 13.5461 233.055C13.5617 232.867 13.5734 232.645 13.5813 232.387C13.6438 229.73 13.675 228.035 13.675 227.301C13.675 226.512 13.6438 224.789 13.5813 222.133C13.5734 221.875 13.5617 221.656 13.5461 221.477C13.5383 221.289 13.5148 221.117 13.4758 220.961C13.4367 220.805 13.3938 220.68 13.3469 220.586C13.3078 220.484 13.2414 220.398 13.1477 220.328C13.0617 220.25 12.9758 220.191 12.8898 220.152C12.8117 220.105 12.6945 220.07 12.5383 220.047C12.382 220.016 12.2297 219.996 12.0813 219.988C11.9406 219.973 11.7531 219.961 11.5188 219.953C11.4484 219.883 11.4133 219.793 11.4133 219.684C11.4133 219.566 11.4484 219.473 11.5188 219.402C11.8625 219.41 12.3508 219.434 12.9836 219.473C13.6242 219.504 14.1594 219.52 14.5891 219.52Z" fill="white"/>
<path d="M32.5164 220.621C32.5164 220.34 32.6531 220.078 32.9266 219.836C33.2 219.594 33.4812 219.473 33.7703 219.473C34.0828 219.473 34.3523 219.605 34.5789 219.871C34.8055 220.129 34.9187 220.41 34.9187 220.715C34.9187 220.98 34.7898 221.242 34.532 221.5C34.282 221.75 33.9969 221.875 33.6766 221.875C33.3875 221.875 33.1219 221.746 32.8797 221.488C32.6375 221.223 32.5164 220.934 32.5164 220.621ZM34.5789 232.387C34.5867 232.738 34.5984 233.023 34.6141 233.242C34.6297 233.461 34.6687 233.656 34.7312 233.828C34.7937 233.992 34.8523 234.117 34.907 234.203C34.9695 234.281 35.075 234.352 35.2234 234.414C35.3797 234.469 35.5281 234.504 35.6687 234.52C35.8094 234.535 36.0242 234.551 36.3133 234.566C36.3836 234.637 36.4187 234.73 36.4187 234.848C36.4187 234.957 36.3836 235.047 36.3133 235.117C36.0086 235.109 35.5906 235.086 35.0594 235.047C34.5281 235.016 34.0828 235 33.7234 235C33.3562 235 32.8992 235.016 32.3523 235.047C31.8055 235.086 31.3875 235.109 31.0984 235.117C31.0281 235.047 30.993 234.957 30.993 234.848C30.993 234.73 31.0281 234.637 31.0984 234.566C31.3875 234.543 31.5984 234.523 31.7312 234.508C31.8719 234.484 32.0203 234.445 32.1766 234.391C32.3328 234.328 32.4383 234.258 32.493 234.18C32.5555 234.102 32.6141 233.98 32.6687 233.816C32.7312 233.645 32.7703 233.453 32.7859 233.242C32.8094 233.023 32.825 232.738 32.8328 232.387C32.8641 231.434 32.8797 230.539 32.8797 229.703C32.8797 229.273 32.8641 228.582 32.8328 227.629C32.8172 227.262 32.7937 226.984 32.7625 226.797C32.7312 226.609 32.6492 226.457 32.5164 226.34C32.3914 226.223 32.243 226.145 32.0711 226.105C31.907 226.066 31.6414 226.031 31.2742 226C31.2117 225.812 31.1961 225.668 31.2273 225.566C32.6492 225.387 33.7117 225.156 34.4148 224.875C34.6258 224.875 34.7312 224.93 34.7312 225.039C34.6687 225.898 34.618 226.727 34.5789 227.523C34.5477 228.172 34.532 228.906 34.532 229.727C34.532 230.008 34.5398 230.516 34.5555 231.25C34.5711 231.977 34.5789 232.355 34.5789 232.387Z" fill="white"/>
<path d="M40.2602 231.977C40.4164 231.82 40.5688 231.812 40.7172 231.953C40.9672 232.969 41.3031 233.68 41.725 234.086C41.8734 234.234 42.1039 234.375 42.4164 234.508C42.7289 234.641 43.0844 234.707 43.4828 234.707C43.9516 234.707 44.4047 234.531 44.8422 234.18C45.2797 233.828 45.4984 233.391 45.4984 232.867C45.4984 232.367 45.3305 231.953 44.9945 231.625C44.6742 231.312 44.0414 230.957 43.0961 230.559C42.1664 230.168 41.5141 229.766 41.1391 229.352C40.7641 228.93 40.5766 228.316 40.5766 227.512C40.5766 226.793 40.8969 226.188 41.5375 225.695C42.1859 225.195 42.9438 224.945 43.8109 224.945C44.1625 224.945 44.5219 224.973 44.8891 225.027C45.2641 225.082 45.643 225.152 46.0258 225.238C46.4086 225.324 46.6625 225.379 46.7875 225.402C46.7797 225.582 46.7563 225.934 46.7172 226.457C46.6859 226.98 46.6703 227.395 46.6703 227.699C46.6 227.77 46.5141 227.809 46.4125 227.816C46.3188 227.824 46.2367 227.793 46.1664 227.723C45.9398 226.223 45.1547 225.473 43.8109 225.473C43.4047 225.473 43.018 225.645 42.6508 225.988C42.2914 226.324 42.1117 226.719 42.1117 227.172C42.1117 227.734 42.3031 228.172 42.6859 228.484C43.0531 228.781 43.6547 229.09 44.4906 229.41C45.3578 229.746 46.0219 230.137 46.4828 230.582C46.9438 231.027 47.1742 231.613 47.1742 232.34C47.1742 232.871 47.0453 233.336 46.7875 233.734C46.5375 234.133 46.2133 234.438 45.8148 234.648C45.4242 234.852 45.0336 235 44.643 235.094C44.2602 235.188 43.8891 235.234 43.5297 235.234C42.7875 235.234 42.0922 235.148 41.4438 234.977C41.3344 234.945 41.182 234.93 40.9867 234.93C40.8305 234.93 40.6352 234.953 40.4008 235C40.4008 234.109 40.3539 233.102 40.2602 231.977Z" fill="white"/>
<path d="M59.875 232.914C59.5078 233.516 59.1016 233.992 58.6562 234.344C58.2188 234.695 57.7969 234.93 57.3906 235.047C56.9844 235.172 56.5312 235.234 56.0312 235.234C54.6016 235.234 53.4688 234.777 52.6328 233.863C51.7969 232.941 51.3789 231.734 51.3789 230.242C51.3789 229.461 51.5234 228.734 51.8125 228.062C52.1016 227.383 52.4766 226.82 52.9375 226.375C53.3984 225.93 53.9141 225.582 54.4844 225.332C55.0547 225.074 55.625 224.945 56.1953 224.945C57.2812 224.945 58.1602 225.152 58.832 225.566C59.5117 225.973 59.8516 226.492 59.8516 227.125C59.8516 227.453 59.7344 227.703 59.5 227.875C59.2734 228.047 59.0195 228.133 58.7383 228.133C58.4805 228.133 58.2812 228.074 58.1406 227.957C58 227.84 57.9141 227.629 57.8828 227.324C57.7422 226.105 57.1406 225.496 56.0781 225.496C55.2969 225.496 54.6211 225.898 54.0508 226.703C53.4805 227.5 53.1953 228.512 53.1953 229.738C53.1953 231.137 53.5156 232.258 54.1562 233.102C54.8047 233.938 55.5977 234.355 56.5352 234.355C57.0273 234.355 57.5508 234.199 58.1055 233.887C58.6602 233.574 59.1289 233.168 59.5117 232.668C59.6289 232.684 59.707 232.703 59.7461 232.727C59.7852 232.75 59.8281 232.812 59.875 232.914Z" fill="white"/>
<path d="M63.9508 230.324C63.9508 228.793 64.3727 227.535 65.2164 226.551C66.1305 225.48 67.3258 224.945 68.8023 224.945C69.4742 224.945 70.0875 225.051 70.6422 225.262C71.1969 225.465 71.65 225.738 72.0016 226.082C72.3609 226.418 72.6617 226.812 72.9039 227.266C73.1539 227.719 73.3297 228.184 73.4312 228.66C73.5406 229.129 73.5953 229.609 73.5953 230.102C73.5953 230.836 73.4742 231.539 73.232 232.211C72.982 232.883 72.607 233.461 72.107 233.945C71.2242 234.805 70.107 235.234 68.7555 235.234C67.982 235.234 67.2789 235.09 66.6461 234.801C66.0211 234.512 65.5172 234.129 65.1344 233.652C64.7516 233.176 64.4586 232.652 64.2555 232.082C64.0523 231.512 63.9508 230.926 63.9508 230.324ZM68.4625 225.496C67.9703 225.496 67.5406 225.625 67.1734 225.883C66.8141 226.133 66.5367 226.477 66.3414 226.914C66.1461 227.344 66.0016 227.797 65.9078 228.273C65.8219 228.75 65.7789 229.258 65.7789 229.797C65.7789 230.273 65.8414 230.781 65.9664 231.32C66.0914 231.852 66.2789 232.375 66.5289 232.891C66.7789 233.406 67.1266 233.836 67.5719 234.18C68.0172 234.516 68.5211 234.684 69.0836 234.684C69.3727 234.684 69.6656 234.617 69.9625 234.484C70.2594 234.344 70.5484 234.133 70.8297 233.852C71.1109 233.562 71.3375 233.156 71.5094 232.633C71.6891 232.109 71.7789 231.508 71.7789 230.828C71.7789 229.195 71.4742 227.898 70.8648 226.938C70.2555 225.977 69.4547 225.496 68.4625 225.496Z" fill="white"/>
<path d="M79.3938 227.512C79.3703 226.895 79.2688 226.496 79.0891 226.316C78.9172 226.137 78.5227 226.016 77.9055 225.953C77.8273 225.828 77.8117 225.691 77.8586 225.543C78.968 225.395 79.9094 225.18 80.6828 224.898C80.8469 224.898 80.9445 224.945 80.9758 225.039C81.0227 225.18 81.0461 225.715 81.0461 226.645C81.0461 226.84 81.0813 226.941 81.1516 226.949C81.175 226.949 81.2063 226.922 81.2453 226.867C82.1047 225.586 82.9523 224.945 83.7883 224.945C84.2883 224.945 84.6438 225.059 84.8547 225.285C85.0656 225.512 85.1711 225.766 85.1711 226.047C85.1711 226.328 85.0617 226.574 84.843 226.785C84.6242 226.996 84.3742 227.102 84.093 227.102C84.0383 227.102 83.9797 227.094 83.9172 227.078C83.8625 227.062 83.8117 227.047 83.7648 227.031C83.7258 227.016 83.6789 226.988 83.6242 226.949C83.5773 226.902 83.5383 226.871 83.507 226.855C83.4836 226.832 83.4445 226.789 83.3898 226.727C83.343 226.664 83.3117 226.625 83.2961 226.609C83.2883 226.594 83.257 226.547 83.2023 226.469L83.132 226.363C83.0227 226.215 82.8625 226.141 82.6516 226.141C82.4484 226.141 82.1047 226.551 81.6203 227.371C81.2844 227.965 81.1008 228.516 81.0695 229.023C81.0148 230.031 81.0148 231.199 81.0695 232.527C81.0852 232.863 81.1008 233.133 81.1164 233.336C81.132 233.531 81.1711 233.711 81.2336 233.875C81.3039 234.039 81.3664 234.156 81.4211 234.227C81.4836 234.297 81.6008 234.363 81.7727 234.426C81.9445 234.48 82.1008 234.516 82.2414 234.531C82.3898 234.547 82.6242 234.566 82.9445 234.59C83.0148 234.66 83.05 234.75 83.05 234.859C83.05 234.961 83.0148 235.047 82.9445 235.117C82.6633 235.109 82.2258 235.086 81.632 235.047C81.0461 235.016 80.5813 235 80.2375 235C79.9094 235 79.4758 235.016 78.9367 235.047C78.3977 235.086 77.9875 235.109 77.7063 235.117C77.6359 235.047 77.6008 234.961 77.6008 234.859C77.6008 234.75 77.6359 234.66 77.7063 234.59C77.9797 234.574 78.1828 234.559 78.3156 234.543C78.4563 234.527 78.6008 234.492 78.7492 234.438C78.8977 234.383 78.9992 234.316 79.0539 234.238C79.1164 234.16 79.175 234.043 79.2297 233.887C79.2922 233.723 79.3313 233.539 79.3469 233.336C79.3625 233.133 79.3781 232.863 79.3938 232.527C79.4563 230.863 79.4563 229.191 79.3938 227.512Z" fill="white"/>
<path d="M95.8445 232.41L95.8914 227.582C95.8914 227.23 95.868 226.984 95.8211 226.844C95.7742 226.695 95.6688 226.527 95.5047 226.34C95.0281 225.793 94.3875 225.52 93.5828 225.52C92.5906 225.52 91.8406 225.902 91.3328 226.668C91.1453 226.934 90.9852 227.352 90.8524 227.922C90.7195 228.492 90.6531 229.164 90.6531 229.938C90.6531 231.281 90.9305 232.363 91.4852 233.184C92.0399 233.996 92.6531 234.402 93.325 234.402C93.9266 234.402 94.6453 234.035 95.4813 233.301C95.6297 233.16 95.7234 233.035 95.7625 232.926C95.8094 232.809 95.8367 232.637 95.8445 232.41ZM95.575 233.852C94.9656 234.336 94.4422 234.688 94.0047 234.906C93.575 235.125 93.1492 235.234 92.7274 235.234C91.5164 235.234 90.5633 234.781 89.868 233.875C89.1805 232.969 88.8367 231.793 88.8367 230.348C88.8367 228.73 89.3641 227.395 90.4188 226.34C90.9031 225.879 91.4149 225.531 91.9539 225.297C92.5008 225.062 93.1336 224.945 93.8524 224.945C94.0711 224.945 94.3211 224.98 94.6024 225.051C94.8914 225.121 95.1375 225.191 95.3406 225.262C95.5438 225.324 95.6531 225.355 95.6688 225.355C95.8172 225.355 95.8914 225.281 95.8914 225.133C95.8914 223.289 95.8758 221.969 95.8445 221.172C95.8289 220.797 95.8055 220.504 95.7742 220.293C95.743 220.082 95.7078 219.906 95.6688 219.766C95.6297 219.625 95.5516 219.527 95.4344 219.473C95.325 219.418 95.2195 219.383 95.118 219.367C95.0164 219.352 94.8445 219.336 94.6024 219.32C94.5086 219.312 94.4344 219.309 94.3797 219.309C94.2469 219.176 94.2 219.023 94.2391 218.852C94.7078 218.812 95.2664 218.73 95.9149 218.605C96.5633 218.48 97.0281 218.359 97.3094 218.242C97.4969 218.242 97.5906 218.316 97.5906 218.465C97.5672 218.91 97.5359 219.629 97.4969 220.621C97.4734 221.223 97.4617 223.164 97.4617 226.445C97.4617 229.727 97.4734 231.668 97.4969 232.27C97.5203 232.871 97.6297 233.289 97.825 233.523C98.0281 233.75 98.4774 233.891 99.1727 233.945C99.2977 234.07 99.2977 234.191 99.1727 234.309C98.0008 234.449 97.1219 234.758 96.5359 235.234C96.3641 235.281 96.2195 235.281 96.1024 235.234C95.9461 234.695 95.868 234.242 95.868 233.875C95.868 233.82 95.8524 233.789 95.8211 233.781C95.7899 233.766 95.7508 233.766 95.7039 233.781C95.657 233.797 95.6141 233.82 95.575 233.852Z" fill="white"/>
<path d="M116.699 228.332H120.988L118.68 221.676H118.609L116.09 227.887C116.035 228.02 116.059 228.129 116.16 228.215C116.27 228.293 116.449 228.332 116.699 228.332ZM113.98 233.348C113.91 233.488 113.883 233.617 113.898 233.734C113.922 233.844 113.949 233.938 113.98 234.016C114.012 234.094 114.078 234.164 114.18 234.227C114.289 234.289 114.391 234.34 114.484 234.379C114.578 234.418 114.695 234.449 114.836 234.473C114.984 234.496 115.117 234.516 115.234 234.531C115.352 234.547 115.484 234.559 115.633 234.566C115.703 234.637 115.738 234.73 115.738 234.848C115.738 234.957 115.703 235.047 115.633 235.117C115.398 235.109 115 235.086 114.438 235.047C113.875 235.016 113.41 235 113.043 235C112.699 235 112.277 235.016 111.777 235.047C111.285 235.086 110.914 235.109 110.664 235.117C110.594 235.047 110.559 234.957 110.559 234.848C110.559 234.73 110.594 234.637 110.664 234.566C111.25 234.527 111.723 234.391 112.082 234.156C112.449 233.922 112.777 233.469 113.066 232.797L118.633 219.684C118.914 219.684 119.332 219.523 119.887 219.203L124.902 233.172C124.988 233.406 125.09 233.609 125.207 233.781C125.332 233.945 125.453 234.074 125.57 234.168C125.688 234.262 125.84 234.34 126.027 234.402C126.223 234.457 126.383 234.492 126.508 234.508C126.641 234.523 126.824 234.543 127.059 234.566C127.129 234.637 127.164 234.73 127.164 234.848C127.164 234.957 127.129 235.047 127.059 235.117C126.848 235.109 126.402 235.086 125.723 235.047C125.051 235.016 124.527 235 124.152 235C123.793 235 123.227 235.016 122.453 235.047C121.688 235.086 121.207 235.109 121.012 235.117C120.941 235.047 120.906 234.957 120.906 234.848C120.906 234.73 120.941 234.637 121.012 234.566C121.777 234.512 122.254 234.449 122.441 234.379C122.824 234.238 122.941 233.949 122.793 233.512L121.27 229.094H116.266C116 229.094 115.809 229.137 115.691 229.223C115.582 229.309 115.492 229.441 115.422 229.621L113.98 233.348Z" fill="white"/>
<path d="M131.064 233.875C131.064 233.594 131.197 233.332 131.462 233.09C131.736 232.84 132.017 232.715 132.306 232.715C132.619 232.715 132.888 232.848 133.115 233.113C133.349 233.379 133.466 233.664 133.466 233.969C133.466 234.234 133.337 234.492 133.08 234.742C132.822 234.992 132.533 235.117 132.212 235.117C131.923 235.117 131.658 234.988 131.416 234.73C131.181 234.473 131.064 234.188 131.064 233.875Z" fill="white"/>
<path d="M141.89 232.387C141.905 232.902 141.937 233.297 141.984 233.57C142.038 233.836 142.155 234.047 142.335 234.203C142.515 234.352 142.714 234.445 142.933 234.484C143.152 234.516 143.499 234.543 143.976 234.566C144.046 234.637 144.081 234.73 144.081 234.848C144.081 234.957 144.046 235.047 143.976 235.117C143.632 235.109 143.14 235.086 142.499 235.047C141.859 235.016 141.32 235 140.882 235C140.437 235 139.886 235.016 139.23 235.047C138.581 235.086 138.093 235.109 137.765 235.117C137.695 235.047 137.659 234.957 137.659 234.848C137.659 234.73 137.695 234.637 137.765 234.566C138.241 234.543 138.589 234.516 138.808 234.484C139.027 234.445 139.226 234.352 139.405 234.203C139.585 234.047 139.698 233.836 139.745 233.57C139.8 233.297 139.835 232.902 139.851 232.387C139.898 230.395 139.921 228.699 139.921 227.301C139.921 225.848 139.898 224.125 139.851 222.133C139.835 221.617 139.8 221.227 139.745 220.961C139.698 220.688 139.585 220.477 139.405 220.328C139.226 220.172 139.027 220.078 138.808 220.047C138.589 220.008 138.241 219.977 137.765 219.953C137.695 219.883 137.659 219.793 137.659 219.684C137.659 219.566 137.695 219.473 137.765 219.402C138.109 219.41 138.601 219.434 139.241 219.473C139.882 219.504 140.421 219.52 140.859 219.52C141.304 219.52 141.851 219.504 142.499 219.473C143.155 219.434 143.648 219.41 143.976 219.402C144.046 219.473 144.081 219.566 144.081 219.684C144.081 219.793 144.046 219.883 143.976 219.953C143.655 219.969 143.409 219.984 143.237 220C143.066 220.016 142.89 220.051 142.71 220.105C142.53 220.16 142.402 220.23 142.323 220.316C142.245 220.402 142.167 220.531 142.089 220.703C142.019 220.867 141.968 221.062 141.937 221.289C141.913 221.5 141.898 221.781 141.89 222.133C141.843 223.938 141.82 225.668 141.82 227.324C141.82 228.723 141.843 230.41 141.89 232.387Z" fill="white"/>
<path d="M19.8484 246.891C18.7 247.57 17.9109 248.27 17.4812 248.988C17.0594 249.699 16.8484 250.52 16.8484 251.449C16.8484 251.988 16.9383 252.473 17.118 252.902C17.2977 253.324 17.532 253.656 17.8211 253.898C18.1102 254.141 18.4109 254.324 18.7234 254.449C19.0437 254.574 19.3562 254.637 19.6609 254.637C20.075 254.637 20.4539 254.578 20.7977 254.461C21.1414 254.344 21.4656 254.156 21.7703 253.898C22.0828 253.633 22.3602 253.363 22.6023 253.09C22.8445 252.809 23.1336 252.438 23.4695 251.977L21.243 248.941C20.4461 247.824 19.9812 247.141 19.8484 246.891ZM23.9266 252.668C23.325 253.496 22.6727 254.133 21.9695 254.578C21.2742 255.016 20.4461 255.234 19.4852 255.234C18.8992 255.234 18.3328 255.152 17.7859 254.988C17.2469 254.816 16.7586 254.57 16.3211 254.25C15.8836 253.93 15.532 253.512 15.2664 252.996C15.0086 252.48 14.8797 251.902 14.8797 251.262C14.8797 250.316 15.2391 249.441 15.9578 248.637C16.6766 247.832 17.8289 247.023 19.4148 246.211C18.532 244.766 18.0906 243.559 18.0906 242.59C18.0906 242.23 18.1727 241.871 18.3367 241.512C18.5008 241.145 18.7312 240.809 19.0281 240.504C19.3328 240.199 19.7234 239.953 20.2 239.766C20.6844 239.57 21.2156 239.473 21.7937 239.473C22.6687 239.473 23.3992 239.684 23.9852 240.105C24.5711 240.527 24.8641 241.102 24.8641 241.828C24.8641 242.445 24.5633 243.148 23.9617 243.938C23.3602 244.719 22.4695 245.438 21.2898 246.094C21.7195 246.844 22.7508 248.316 24.3836 250.512C25.0633 249.512 25.6844 248.488 26.2469 247.441C26.4266 247.105 26.5516 246.832 26.6219 246.621C26.6922 246.402 26.7273 246.23 26.7273 246.105C26.7273 245.973 26.657 245.875 26.5164 245.812C26.3836 245.742 26.243 245.695 26.0945 245.672C25.9461 245.648 25.7195 245.629 25.4148 245.613C25.3445 245.543 25.3094 245.453 25.3094 245.344C25.3094 245.227 25.3445 245.133 25.4148 245.062C25.5086 245.07 25.6961 245.086 25.9773 245.109C26.2586 245.125 26.5437 245.141 26.8328 245.156C27.1219 245.172 27.3875 245.18 27.6297 245.18C27.9578 245.18 28.3719 245.16 28.8719 245.121C29.3719 245.082 29.6297 245.062 29.6453 245.062C29.7156 245.133 29.7508 245.227 29.7508 245.344C29.7508 245.453 29.7156 245.543 29.6453 245.613C29.3641 245.629 29.1492 245.645 29.0008 245.66C28.8602 245.676 28.7039 245.715 28.532 245.777C28.3602 245.84 28.2273 245.91 28.1336 245.988C28.0398 246.059 27.9187 246.18 27.7703 246.352C27.6297 246.523 27.5008 246.711 27.3836 246.914L26.9031 247.758C26.0906 249.195 25.3953 250.328 24.8172 251.156L25.7078 252.434C26.0984 252.996 26.4578 253.406 26.7859 253.664C27.1141 253.93 27.3875 254.062 27.6062 254.062C28.3016 254.062 28.8914 253.59 29.3758 252.645C29.5477 252.645 29.7156 252.727 29.8797 252.891C29.5516 253.664 29.1531 254.25 28.6844 254.648C28.2156 255.039 27.7898 255.234 27.407 255.234C27.1727 255.234 26.9734 255.219 26.8094 255.188C26.6453 255.164 26.4422 255.105 26.2 255.012C25.9578 254.918 25.7078 254.758 25.45 254.531C25.2078 254.305 24.9422 254.004 24.6531 253.629L23.9266 252.668ZM20.8797 245.426C21.5906 244.957 22.157 244.371 22.5789 243.668C23.0008 242.965 23.2117 242.367 23.2117 241.875C23.2117 241.328 23.075 240.891 22.8016 240.562C22.5359 240.234 22.1609 240.07 21.6766 240.07C21.1766 240.07 20.7508 240.266 20.3992 240.656C20.0477 241.047 19.8719 241.613 19.8719 242.355C19.8719 242.684 19.9617 243.148 20.1414 243.75C20.3211 244.344 20.5672 244.902 20.8797 245.426Z" fill="white"/>
<path d="M47.5234 248.332H51.8125L49.5039 241.676H49.4336L46.9141 247.887C46.8594 248.02 46.8828 248.129 46.9844 248.215C47.0938 248.293 47.2734 248.332 47.5234 248.332ZM44.8047 253.348C44.7344 253.488 44.707 253.617 44.7227 253.734C44.7461 253.844 44.7734 253.938 44.8047 254.016C44.8359 254.094 44.9023 254.164 45.0039 254.227C45.1133 254.289 45.2148 254.34 45.3086 254.379C45.4023 254.418 45.5195 254.449 45.6602 254.473C45.8086 254.496 45.9414 254.516 46.0586 254.531C46.1758 254.547 46.3086 254.559 46.457 254.566C46.5273 254.637 46.5625 254.73 46.5625 254.848C46.5625 254.957 46.5273 255.047 46.457 255.117C46.2227 255.109 45.8242 255.086 45.2617 255.047C44.6992 255.016 44.2344 255 43.8672 255C43.5234 255 43.1016 255.016 42.6016 255.047C42.1094 255.086 41.7383 255.109 41.4883 255.117C41.418 255.047 41.3828 254.957 41.3828 254.848C41.3828 254.73 41.418 254.637 41.4883 254.566C42.0742 254.527 42.5469 254.391 42.9062 254.156C43.2734 253.922 43.6016 253.469 43.8906 252.797L49.457 239.684C49.7383 239.684 50.1562 239.523 50.7109 239.203L55.7266 253.172C55.8125 253.406 55.9141 253.609 56.0312 253.781C56.1562 253.945 56.2773 254.074 56.3945 254.168C56.5117 254.262 56.6641 254.34 56.8516 254.402C57.0469 254.457 57.207 254.492 57.332 254.508C57.4648 254.523 57.6484 254.543 57.8828 254.566C57.9531 254.637 57.9883 254.73 57.9883 254.848C57.9883 254.957 57.9531 255.047 57.8828 255.117C57.6719 255.109 57.2266 255.086 56.5469 255.047C55.875 255.016 55.3516 255 54.9766 255C54.6172 255 54.0508 255.016 53.2773 255.047C52.5117 255.086 52.0312 255.109 51.8359 255.117C51.7656 255.047 51.7305 254.957 51.7305 254.848C51.7305 254.73 51.7656 254.637 51.8359 254.566C52.6016 254.512 53.0781 254.449 53.2656 254.379C53.6484 254.238 53.7656 253.949 53.6172 253.512L52.0938 249.094H47.0898C46.8242 249.094 46.6328 249.137 46.5156 249.223C46.4062 249.309 46.3164 249.441 46.2461 249.621L44.8047 253.348Z" fill="white"/>
<path d="M77.7086 252.316C77.7477 253.309 77.8531 253.914 78.025 254.133C78.2203 254.375 78.6656 254.52 79.3609 254.566C79.4234 254.629 79.4547 254.719 79.4547 254.836C79.4547 254.938 79.4234 255.031 79.3609 255.117C79.1187 255.117 78.7125 255.098 78.1422 255.059C77.5719 255.02 77.1305 255 76.818 255C76.5211 255 76.0914 255.02 75.5289 255.059C74.9664 255.098 74.5797 255.117 74.3687 255.117C74.3062 255.031 74.275 254.938 74.275 254.836C74.275 254.719 74.3062 254.629 74.3687 254.566C75.0016 254.52 75.4078 254.375 75.5875 254.133C75.7594 253.898 75.8648 253.293 75.9039 252.316C75.9586 250.668 75.9586 249.02 75.9039 247.371C75.8648 246.699 75.7906 246.25 75.6812 246.023C75.5562 245.781 75.3336 245.66 75.0133 245.66H70.8883C70.8727 246.504 70.8687 247.613 70.8766 248.988C70.8922 250.645 70.9039 251.754 70.9117 252.316C70.943 253.301 71.0484 253.91 71.2281 254.145C71.4078 254.379 71.8609 254.52 72.5875 254.566C72.65 254.629 72.6812 254.719 72.6812 254.836C72.6812 254.938 72.65 255.031 72.5875 255.117C72.3609 255.117 71.9547 255.098 71.3687 255.059C70.7828 255.02 70.3336 255 70.0211 255C69.7477 255 69.3375 255.02 68.7906 255.059C68.2437 255.098 67.8531 255.117 67.6187 255.117C67.4391 254.938 67.4391 254.754 67.6187 254.566C68.2437 254.52 68.6422 254.375 68.8141 254.133C68.9703 253.906 69.068 253.301 69.107 252.316C69.1148 251.754 69.1266 250.645 69.1422 248.988C69.15 247.613 69.1461 246.504 69.1305 245.66H64.3375C64.3062 248.699 64.3141 250.918 64.3609 252.316C64.4 253.293 64.4937 253.895 64.6422 254.121C64.8062 254.371 65.1617 254.52 65.7086 254.566C65.8883 254.754 65.8883 254.938 65.7086 255.117C65.4195 255.117 65.0484 255.098 64.5953 255.059C64.1422 255.02 63.7906 255 63.5406 255C63.275 255 62.8805 255.02 62.357 255.059C61.8336 255.098 61.4547 255.117 61.2203 255.117C61.15 255.016 61.1148 254.922 61.1148 254.836C61.1148 254.727 61.15 254.637 61.2203 254.566C61.8375 254.52 62.232 254.375 62.4039 254.133C62.5758 253.891 62.6773 253.285 62.7086 252.316C62.7555 250.98 62.7555 248.762 62.7086 245.66H61.0914C61.0133 245.66 60.9742 245.613 60.9742 245.52V245.449C60.9742 245.191 61.15 245.062 61.5016 245.062H62.7086C62.7164 243.836 62.8844 242.707 63.2125 241.676C63.6031 240.496 64.232 239.641 65.0992 239.109C65.6148 238.805 66.1617 238.652 66.7398 238.652C67.5523 238.652 68.2984 238.801 68.9781 239.098C69.6422 239.387 70.0641 239.695 70.2437 240.023L70.4078 239.812C71.2516 238.766 72.3453 238.242 73.6891 238.242C74.6187 238.242 75.4859 238.5 76.2906 239.016C77.1344 239.555 77.5562 240.18 77.5562 240.891C77.5562 241.141 77.4625 241.367 77.275 241.57C77.0875 241.773 76.8609 241.875 76.5953 241.875C76.2359 241.875 75.9547 241.758 75.7516 241.523C75.5484 241.281 75.4 240.879 75.3062 240.316C75.2516 239.895 75.0367 239.551 74.6617 239.285C74.2945 239.027 73.9 238.898 73.4781 238.898C73.1969 238.898 72.8727 239.031 72.5055 239.297C72.1227 239.57 71.7984 239.949 71.5328 240.434C71.1187 241.191 70.9117 242.16 70.9117 243.34V245.062H75.4234C76.3687 245.062 77.0797 244.961 77.5562 244.758C77.7203 244.758 77.8023 244.805 77.8023 244.898C77.7555 246.289 77.7242 247.113 77.7086 247.371C77.6539 249.02 77.6539 250.668 77.7086 252.316ZM64.3375 245.062H69.107V244.348C69.107 243.246 69.2359 242.301 69.4937 241.512C69.3141 241.512 69.1578 241.457 69.025 241.348C68.9078 241.254 68.8141 241.148 68.7437 241.031C68.6891 240.945 68.6109 240.785 68.5094 240.551C68.2516 239.965 68.0445 239.613 67.8883 239.496C67.5836 239.301 67.1812 239.203 66.6812 239.203C66.5328 239.203 66.3531 239.262 66.1422 239.379C65.9156 239.504 65.6695 239.75 65.4039 240.117C65.1383 240.484 64.9195 240.965 64.7477 241.559C64.5367 242.309 64.4078 243.285 64.3609 244.488C64.3609 244.527 64.3531 244.719 64.3375 245.062Z" fill="white"/>
<path d="M84.4094 252.527C84.4562 250.512 84.4797 248.496 84.4797 246.48C84.4797 243.855 84.4562 242.086 84.4094 241.172C84.3937 240.875 84.3742 240.637 84.3508 240.457C84.3351 240.27 84.3039 240.105 84.257 239.965C84.2101 239.816 84.1594 239.707 84.1047 239.637C84.05 239.566 83.9601 239.508 83.8351 239.461C83.718 239.406 83.5969 239.371 83.4719 239.355C83.3547 239.34 83.1828 239.324 82.9562 239.309C82.8547 239.207 82.8273 239.055 82.8742 238.852C83.343 238.812 83.9016 238.73 84.55 238.605C85.2062 238.48 85.675 238.359 85.9562 238.242C86.1594 238.242 86.2609 238.316 86.2609 238.465C86.2219 238.871 86.1906 239.59 86.1672 240.621C86.1281 242.652 86.1086 244.812 86.1086 247.102C86.1086 249.133 86.1281 250.941 86.1672 252.527C86.175 252.871 86.1867 253.141 86.2023 253.336C86.218 253.539 86.2531 253.723 86.3078 253.887C86.3703 254.043 86.4289 254.16 86.4836 254.238C86.5383 254.309 86.6398 254.371 86.7883 254.426C86.9367 254.48 87.0773 254.516 87.2101 254.531C87.343 254.539 87.5461 254.551 87.8195 254.566C87.8898 254.637 87.925 254.73 87.925 254.848C87.925 254.957 87.8898 255.047 87.8195 255.117C87.5383 255.109 87.132 255.086 86.6008 255.047C86.0773 255.016 85.6359 255 85.2766 255C84.9172 255 84.4758 255.016 83.9523 255.047C83.4289 255.086 83.0305 255.109 82.757 255.117C82.6867 255.047 82.6516 254.957 82.6516 254.848C82.6516 254.73 82.6867 254.637 82.757 254.566C83.0305 254.551 83.2336 254.539 83.3664 254.531C83.4992 254.516 83.6398 254.48 83.7883 254.426C83.9367 254.371 84.0383 254.309 84.093 254.238C84.1476 254.16 84.2023 254.043 84.257 253.887C84.3195 253.723 84.3586 253.539 84.3742 253.336C84.3898 253.133 84.4016 252.863 84.4094 252.527Z" fill="white"/>
<path d="M92.8094 240.621C92.8094 240.34 92.9461 240.078 93.2195 239.836C93.493 239.594 93.7742 239.473 94.0633 239.473C94.3758 239.473 94.6453 239.605 94.8719 239.871C95.0984 240.129 95.2117 240.41 95.2117 240.715C95.2117 240.98 95.0828 241.242 94.825 241.5C94.575 241.75 94.2898 241.875 93.9695 241.875C93.6805 241.875 93.4148 241.746 93.1727 241.488C92.9305 241.223 92.8094 240.934 92.8094 240.621ZM94.8719 252.387C94.8797 252.738 94.8914 253.023 94.907 253.242C94.9227 253.461 94.9617 253.656 95.0242 253.828C95.0867 253.992 95.1453 254.117 95.2 254.203C95.2625 254.281 95.368 254.352 95.5164 254.414C95.6727 254.469 95.8211 254.504 95.9617 254.52C96.1023 254.535 96.3172 254.551 96.6062 254.566C96.6766 254.637 96.7117 254.73 96.7117 254.848C96.7117 254.957 96.6766 255.047 96.6062 255.117C96.3016 255.109 95.8836 255.086 95.3523 255.047C94.8211 255.016 94.3758 255 94.0164 255C93.6492 255 93.1922 255.016 92.6453 255.047C92.0984 255.086 91.6805 255.109 91.3914 255.117C91.3211 255.047 91.2859 254.957 91.2859 254.848C91.2859 254.73 91.3211 254.637 91.3914 254.566C91.6805 254.543 91.8914 254.523 92.0242 254.508C92.1648 254.484 92.3133 254.445 92.4695 254.391C92.6258 254.328 92.7312 254.258 92.7859 254.18C92.8484 254.102 92.907 253.98 92.9617 253.816C93.0242 253.645 93.0633 253.453 93.0789 253.242C93.1023 253.023 93.118 252.738 93.1258 252.387C93.157 251.434 93.1727 250.539 93.1727 249.703C93.1727 249.273 93.157 248.582 93.1258 247.629C93.1102 247.262 93.0867 246.984 93.0555 246.797C93.0242 246.609 92.9422 246.457 92.8094 246.34C92.6844 246.223 92.5359 246.145 92.3641 246.105C92.2 246.066 91.9344 246.031 91.5672 246C91.5047 245.812 91.4891 245.668 91.5203 245.566C92.9422 245.387 94.0047 245.156 94.7078 244.875C94.9187 244.875 95.0242 244.93 95.0242 245.039C94.9617 245.898 94.9109 246.727 94.8719 247.523C94.8406 248.172 94.825 248.906 94.825 249.727C94.825 250.008 94.8328 250.516 94.8484 251.25C94.8641 251.977 94.8719 252.355 94.8719 252.387Z" fill="white"/>
<path d="M106.483 249.914L104.514 250.395C103.725 250.59 103.143 250.91 102.768 251.355C102.401 251.801 102.217 252.281 102.217 252.797C102.217 253.203 102.377 253.594 102.698 253.969C103.026 254.336 103.455 254.52 103.987 254.52C104.073 254.52 104.163 254.508 104.256 254.484C104.358 254.461 104.463 254.422 104.573 254.367C104.69 254.305 104.791 254.25 104.877 254.203C104.963 254.148 105.069 254.07 105.194 253.969L105.487 253.758C105.549 253.711 105.647 253.633 105.78 253.523L106.049 253.301C106.252 253.152 106.358 252.957 106.366 252.715L106.483 249.914ZM106.366 253.898H106.319L105.862 254.262C105.354 254.652 104.932 254.91 104.596 255.035C104.268 255.168 103.842 255.234 103.319 255.234C101.413 255.234 100.459 254.453 100.459 252.891C100.459 252.133 100.803 251.469 101.491 250.898C102.17 250.336 103.084 249.926 104.233 249.668L106.389 249.188C106.467 249.164 106.506 248.996 106.506 248.684C106.506 248.066 106.452 247.539 106.342 247.102C106.233 246.656 106.084 246.324 105.897 246.105C105.709 245.879 105.518 245.719 105.323 245.625C105.127 245.523 104.924 245.473 104.713 245.473C104.237 245.473 103.807 245.57 103.424 245.766C103.049 245.953 102.862 246.215 102.862 246.551C102.862 246.762 102.877 246.914 102.909 247.008C102.955 247.102 102.979 247.238 102.979 247.418C102.979 247.598 102.877 247.793 102.674 248.004C102.479 248.207 102.229 248.309 101.924 248.309C101.659 248.309 101.44 248.223 101.268 248.051C101.096 247.871 101.01 247.645 101.01 247.371C101.01 246.77 101.42 246.215 102.241 245.707C103.069 245.199 103.955 244.945 104.901 244.945C107.159 244.945 108.245 246.242 108.159 248.836L108.041 252.234C108.026 252.719 108.034 253.098 108.065 253.371C108.104 253.645 108.198 253.867 108.346 254.039C108.495 254.203 108.713 254.285 109.002 254.285C109.143 254.285 109.26 254.254 109.354 254.191C109.448 254.121 109.518 254.055 109.565 253.992C109.62 253.93 109.663 253.898 109.694 253.898C109.748 253.898 109.819 253.93 109.905 253.992C109.991 254.055 110.034 254.125 110.034 254.203C110.034 254.258 109.952 254.363 109.788 254.52C109.631 254.676 109.393 254.836 109.073 255C108.752 255.156 108.424 255.234 108.088 255.234C107.198 255.234 106.623 254.789 106.366 253.898Z" fill="white"/>
<path d="M113.875 245.18H114.93C114.93 244.43 114.922 243.816 114.906 243.34C114.898 242.863 114.887 242.535 114.871 242.355C114.863 242.176 114.859 242.07 114.859 242.039C114.859 241.969 114.891 241.914 114.953 241.875C115.023 241.828 115.141 241.781 115.305 241.734C115.469 241.68 115.586 241.637 115.656 241.605C115.75 241.566 115.863 241.512 115.996 241.441L116.336 241.266C116.43 241.219 116.5 241.195 116.547 241.195C116.656 241.195 116.711 241.27 116.711 241.418C116.664 242.004 116.633 242.805 116.617 243.82L116.594 245.18H119.348C119.465 245.18 119.523 245.23 119.523 245.332V245.59C119.523 245.684 119.465 245.758 119.348 245.812C119.23 245.859 119.102 245.883 118.961 245.883H116.594C116.461 248.867 116.418 250.938 116.465 252.094C116.496 252.875 116.559 253.422 116.652 253.734C116.754 254.047 116.949 254.203 117.238 254.203C117.535 254.203 117.871 254.129 118.246 253.98C118.629 253.824 118.973 253.629 119.277 253.395C119.355 253.418 119.41 253.449 119.441 253.488C119.473 253.527 119.5 253.605 119.523 253.723C119.086 254.215 118.594 254.59 118.047 254.848C117.5 255.105 116.957 255.234 116.418 255.234C115.879 255.234 115.477 255.055 115.211 254.695C114.945 254.336 114.812 253.758 114.812 252.961C114.812 252.555 114.832 251.48 114.871 249.738C114.91 247.996 114.93 246.711 114.93 245.883H113.594C113.508 245.883 113.465 245.832 113.465 245.73V245.52C113.465 245.293 113.602 245.18 113.875 245.18Z" fill="white"/>
<path d="M125.076 248.789L129.716 248.66C129.935 248.652 130.045 248.551 130.045 248.355C130.045 247.449 129.834 246.746 129.412 246.246C128.99 245.746 128.482 245.496 127.888 245.496C127.646 245.496 127.396 245.551 127.138 245.66C126.88 245.762 126.611 245.93 126.33 246.164C126.048 246.398 125.795 246.742 125.568 247.195C125.341 247.648 125.177 248.18 125.076 248.789ZM131.416 252.867C131.666 252.891 131.826 253.016 131.896 253.242C131.42 253.867 130.841 254.355 130.162 254.707C129.482 255.059 128.724 255.234 127.888 255.234C126.295 255.234 125.087 254.75 124.267 253.781C123.548 252.938 123.189 251.801 123.189 250.371C123.189 249.535 123.33 248.766 123.611 248.062C123.9 247.359 124.271 246.789 124.724 246.352C125.185 245.906 125.689 245.562 126.236 245.32C126.783 245.07 127.334 244.945 127.888 244.945C128.505 244.945 129.048 245.027 129.517 245.191C129.994 245.348 130.377 245.555 130.666 245.812C130.962 246.062 131.201 246.371 131.38 246.738C131.568 247.098 131.697 247.457 131.767 247.816C131.837 248.176 131.873 248.562 131.873 248.977C131.873 249.094 131.834 249.191 131.755 249.27C131.677 249.348 131.572 249.387 131.439 249.387L125.005 249.48C125.005 250.84 125.248 251.91 125.732 252.691C126.068 253.238 126.494 253.652 127.009 253.934C127.517 254.215 128.002 254.355 128.462 254.355C129.072 254.355 129.595 254.234 130.033 253.992C130.47 253.742 130.931 253.367 131.416 252.867Z" fill="white"/>
<path d="M136.277 251.977C136.433 251.82 136.585 251.812 136.734 251.953C136.984 252.969 137.32 253.68 137.741 254.086C137.89 254.234 138.12 254.375 138.433 254.508C138.745 254.641 139.101 254.707 139.499 254.707C139.968 254.707 140.421 254.531 140.859 254.18C141.296 253.828 141.515 253.391 141.515 252.867C141.515 252.367 141.347 251.953 141.011 251.625C140.691 251.312 140.058 250.957 139.112 250.559C138.183 250.168 137.53 249.766 137.155 249.352C136.78 248.93 136.593 248.316 136.593 247.512C136.593 246.793 136.913 246.188 137.554 245.695C138.202 245.195 138.96 244.945 139.827 244.945C140.179 244.945 140.538 244.973 140.905 245.027C141.28 245.082 141.659 245.152 142.042 245.238C142.425 245.324 142.679 245.379 142.804 245.402C142.796 245.582 142.773 245.934 142.734 246.457C142.702 246.98 142.687 247.395 142.687 247.699C142.616 247.77 142.53 247.809 142.429 247.816C142.335 247.824 142.253 247.793 142.183 247.723C141.956 246.223 141.171 245.473 139.827 245.473C139.421 245.473 139.034 245.645 138.667 245.988C138.308 246.324 138.128 246.719 138.128 247.172C138.128 247.734 138.32 248.172 138.702 248.484C139.07 248.781 139.671 249.09 140.507 249.41C141.374 249.746 142.038 250.137 142.499 250.582C142.96 251.027 143.191 251.613 143.191 252.34C143.191 252.871 143.062 253.336 142.804 253.734C142.554 254.133 142.23 254.438 141.831 254.648C141.441 254.852 141.05 255 140.659 255.094C140.277 255.188 139.905 255.234 139.546 255.234C138.804 255.234 138.109 255.148 137.46 254.977C137.351 254.945 137.198 254.93 137.003 254.93C136.847 254.93 136.652 254.953 136.417 255C136.417 254.109 136.37 253.102 136.277 251.977Z" fill="white"/>
<defs>
<linearGradient id="paint0_linear_7_24" x1="0" y1="127.59" x2="158.09" y2="127.59" gradientUnits="userSpaceOnUse">
<stop offset="0.07" stop-color="#9B9B9B"/>
<stop offset="1" stop-color="#231F20" stop-opacity="0"/>
</linearGradient>
<linearGradient id="paint1_linear_7_24" x1="-0.0418006" y1="127.644" x2="158.09" y2="127.644" gradientUnits="userSpaceOnUse">
<stop stop-color="#231F20" stop-opacity="0"/>
<stop offset="0.85" stop-color="#9B9B9B"/>
</linearGradient>
</defs>
</svg>
