<svg width="165" height="205" viewBox="0 0 165 205" fill="none" xmlns="http://www.w3.org/2000/svg">
<path d="M3 201V3H161M161 3V200H3M161 3V2M82.5247 51C56.0098 101 30.0049 150.5 3.5 200.5C11.4555 197.02 18.9109 194.04 26.8664 190.57C35.6514 174.94 44.4364 159.31 53.2214 143.67C72.1106 143.48 90.9999 143.28 109.899 143.09L137.274 190.57C145.179 194.05 153.094 197.53 161 201C134.845 151 108.68 101 82.5247 51ZM66 119L82 89L98 119H66ZM52.83 89.35C43.87 92.89 34.92 96.44 25.96 99.98C44.83 67.65 63.7 35.33 82.57 3C101.09 35.33 119.61 67.65 138.14 99.98C129.44 96.44 120.75 92.89 112.05 89.35C102.22 70.39 92.4 51.44 82.57 32.48C72.66 51.44 62.74 70.39 52.83 89.35Z" stroke="white" stroke-width="3"/>
</svg>
