<svg width="146" height="25" viewBox="0 0 146 25" fill="none" xmlns="http://www.w3.org/2000/svg">
<path d="M3.4663 3.66025V12.1503C3.9468 12.3963 4.896 12.5193 6.314 12.5193C8.1538 12.5193 9.5308 12.1033 10.4448 11.2713C11.3589 10.4393 11.8159 9.02725 11.8159 7.03525C11.8159 6.20325 11.7104 5.48226 11.4995 4.87326C11.3003 4.26426 11.0425 3.78325 10.7261 3.43225C10.4214 3.08025 10.0347 2.79926 9.5659 2.58826C9.0972 2.37726 8.6401 2.24227 8.1948 2.18427C7.7495 2.11327 7.2515 2.07825 6.7007 2.07825C5.4702 2.07825 4.6206 2.20727 4.1519 2.46527C3.6948 2.71127 3.4663 3.10925 3.4663 3.66025ZM0.372556 7.98425C0.372556 4.89125 0.255366 2.48825 0.0209961 0.777252L0.0913062 0.672272C0.524896 0.742272 1.13428 0.777252 1.91943 0.777252C2.28271 0.777252 3.1382 0.736266 4.4858 0.654266C5.8335 0.572266 6.6597 0.53125 6.9644 0.53125C8.2417 0.53125 9.3784 0.666249 10.3745 0.936249C11.3823 1.20525 12.1851 1.55726 12.7827 1.99026C13.3921 2.41226 13.8901 2.91025 14.2769 3.48425C14.6753 4.05925 14.9448 4.62127 15.0854 5.17227C15.2378 5.72327 15.314 6.28525 15.314 6.85925C15.314 7.50425 15.2202 8.14827 15.0327 8.79327C14.8452 9.42627 14.5288 10.0643 14.0835 10.7093C13.6382 11.3533 13.0874 11.9222 12.4312 12.4142C11.7749 12.9062 10.9312 13.3053 9.8999 13.6093C8.8804 13.9143 7.7437 14.0663 6.4897 14.0663C5.2593 14.0663 4.2515 13.9433 3.4663 13.6973V16.7913C3.4663 19.7913 3.5894 22.1933 3.8354 23.9983L3.7651 24.1033C3.3198 24.0333 2.70459 23.9983 1.91943 23.9983C1.13428 23.9983 0.524896 24.0333 0.0913062 24.1033L0.0209961 23.9983C0.255366 22.3693 0.372556 19.9673 0.372556 16.7913V7.98425Z" fill="white"/>
<path d="M26.3495 11.9753L26.455 12.0453C27.287 10.6033 28.0194 9.60225 28.6522 9.03925C29.2968 8.47725 30.0878 8.19525 31.0253 8.19525C31.1894 8.19525 31.3241 8.20126 31.4296 8.21326C31.5468 8.22526 31.6288 8.23626 31.6757 8.24826C31.7226 8.26026 31.8163 8.28927 31.9569 8.33627C32.1093 8.38327 32.2323 8.41825 32.3261 8.44125L32.4667 8.58228L31.746 11.2543L31.4647 11.3242C31.1015 10.9842 30.4745 10.8143 29.5839 10.8143C29.2323 10.8143 28.8749 10.9263 28.5116 11.1483C28.1483 11.3713 27.8378 11.6823 27.58 12.0803C27.1464 12.7603 26.83 13.3523 26.6308 13.8553C26.4433 14.3483 26.3495 14.9453 26.3495 15.6483V17.5123C26.3495 20.1953 26.455 22.3573 26.6659 23.9983L26.5956 24.1033C26.1503 24.0333 25.5878 23.9983 24.9081 23.9983C24.2284 23.9983 23.6659 24.0333 23.2206 24.1033L23.1503 23.9983C23.3612 22.5453 23.4667 20.3833 23.4667 17.5123V15.5433C23.4667 12.2153 23.3612 9.88327 23.1503 8.54727L23.2206 8.44125C24.2401 8.54725 25.2128 8.51227 26.1386 8.33627C26.2792 8.33627 26.3495 8.45926 26.3495 8.70526V11.9753Z" fill="white"/>
<path d="M41.0589 14.1723H47.6858C48.0257 14.1723 48.1956 14.0023 48.1956 13.6623C48.1956 12.4083 47.8733 11.4243 47.2288 10.7093C46.5843 9.99426 45.8929 9.63727 45.1546 9.63727C44.9554 9.63727 44.7269 9.67225 44.469 9.74225C44.2112 9.81225 43.9007 9.95325 43.5374 10.1642C43.1741 10.3752 42.8343 10.6393 42.5179 10.9553C42.2132 11.2713 41.9202 11.7113 41.639 12.2733C41.3694 12.8363 41.1761 13.4693 41.0589 14.1723ZM50.6741 20.2543L51.3948 21.1503C50.6917 22.1113 49.7835 22.8853 48.6702 23.4713C47.5569 24.0573 46.3733 24.3503 45.1194 24.3503C43.9124 24.3503 42.8167 24.1393 41.8323 23.7173C40.8479 23.3073 40.0394 22.7273 39.4065 21.9773C38.3284 20.6873 37.7894 18.8533 37.7894 16.4753C37.7894 15.2093 38.012 14.0433 38.4573 12.9773C38.9026 11.8983 39.4769 11.0193 40.18 10.3403C40.8948 9.66027 41.6858 9.13327 42.553 8.75827C43.4202 8.38327 44.2874 8.19525 45.1546 8.19525C46.0687 8.19525 46.889 8.33625 47.6155 8.61725C48.3538 8.89825 48.9515 9.26825 49.4085 9.72525C49.8655 10.1703 50.2464 10.6973 50.5511 11.3073C50.8675 11.9043 51.0843 12.5082 51.2015 13.1172C51.3304 13.7272 51.3948 14.3533 51.3948 14.9983C51.3948 15.4083 51.178 15.6133 50.7444 15.6133H40.9534C40.9534 17.7343 41.2405 19.2583 41.8147 20.1843C42.2601 20.9103 42.8401 21.4323 43.555 21.7483C44.2815 22.0763 45.0081 22.2403 45.7347 22.2403C47.8089 22.2403 49.4554 21.5783 50.6741 20.2543Z" fill="white"/>
<path d="M58.2644 20.3593L58.8093 20.3242C59.3483 21.0862 59.987 21.7133 60.7253 22.2053C61.4753 22.6863 62.2546 22.9263 63.0632 22.9263C64.0476 22.9263 64.8444 22.6623 65.4538 22.1353C66.0632 21.6073 66.3679 20.8753 66.3679 19.9373C66.3679 19.1413 66.069 18.5373 65.4714 18.1273C64.9089 17.7523 63.9948 17.3833 62.7292 17.0193C62.1081 16.8443 61.5749 16.6623 61.1296 16.4753C60.6843 16.2753 60.239 16.0123 59.7936 15.6843C59.3483 15.3443 59.0085 14.9163 58.7741 14.4003C58.5397 13.8853 58.4226 13.2813 58.4226 12.5903C58.4226 11.6413 58.6921 10.8263 59.2311 10.1463C59.7819 9.45527 60.4558 8.95725 61.2526 8.65225C62.0612 8.34825 62.9284 8.19525 63.8542 8.19525C64.7214 8.19525 65.6061 8.30127 66.5085 8.51227C67.4226 8.72327 68.155 8.97525 68.7058 9.26825L68.7761 9.39127L68.0554 12.0453L67.5632 12.0803C66.8835 11.2833 66.3386 10.7323 65.9284 10.4283C65.2136 9.90025 64.4753 9.63727 63.7136 9.63727C62.905 9.63727 62.2429 9.83625 61.7272 10.2343C61.2233 10.6333 60.9714 11.1893 60.9714 11.9043C60.9714 13.2283 62.0847 14.1663 64.3112 14.7173C65.0144 14.8813 65.6296 15.0803 66.1569 15.3143C66.696 15.5373 67.2058 15.8303 67.6862 16.1933C68.1784 16.5453 68.5534 16.9963 68.8112 17.5473C69.0808 18.0983 69.2155 18.7253 69.2155 19.4283C69.2155 19.8613 69.1628 20.2893 69.0573 20.7113C68.9636 21.1213 68.7761 21.5553 68.4948 22.0123C68.2136 22.4693 67.8503 22.8673 67.405 23.2073C66.9714 23.5353 66.3796 23.8053 65.6296 24.0163C64.8913 24.2383 64.0476 24.3503 63.0983 24.3503C61.3171 24.3503 59.5065 24.0273 57.6667 23.3833L58.2644 20.3593Z" fill="white"/>
<path d="M78.8448 14.1723H85.4718C85.8116 14.1723 85.9815 14.0023 85.9815 13.6623C85.9815 12.4083 85.6593 11.4243 85.0147 10.7093C84.3702 9.99426 83.6788 9.63727 82.9405 9.63727C82.7413 9.63727 82.5128 9.67225 82.255 9.74225C81.9972 9.81225 81.6866 9.95325 81.3233 10.1642C80.9601 10.3752 80.6202 10.6393 80.3038 10.9553C79.9991 11.2713 79.7062 11.7113 79.4249 12.2733C79.1554 12.8363 78.962 13.4693 78.8448 14.1723ZM88.4601 20.2543L89.1808 21.1503C88.4776 22.1113 87.5694 22.8853 86.4562 23.4713C85.3429 24.0573 84.1593 24.3503 82.9054 24.3503C81.6983 24.3503 80.6026 24.1393 79.6183 23.7173C78.6339 23.3073 77.8253 22.7273 77.1925 21.9773C76.1144 20.6873 75.5753 18.8533 75.5753 16.4753C75.5753 15.2093 75.7979 14.0433 76.2433 12.9773C76.6886 11.8983 77.2628 11.0193 77.9659 10.3403C78.6808 9.66027 79.4718 9.13327 80.339 8.75827C81.2062 8.38327 82.0733 8.19525 82.9405 8.19525C83.8546 8.19525 84.6749 8.33625 85.4015 8.61725C86.1397 8.89825 86.7374 9.26825 87.1944 9.72525C87.6515 10.1703 88.0323 10.6973 88.337 11.3073C88.6534 11.9043 88.8702 12.5082 88.9874 13.1172C89.1163 13.7272 89.1808 14.3533 89.1808 14.9983C89.1808 15.4083 88.964 15.6133 88.5304 15.6133H78.7394C78.7394 17.7343 79.0265 19.2583 79.6007 20.1843C80.046 20.9103 80.6261 21.4323 81.3409 21.7483C82.0675 22.0763 82.794 22.2403 83.5206 22.2403C85.5948 22.2403 87.2413 21.5783 88.4601 20.2543Z" fill="white"/>
<path d="M110.816 17.5123C110.816 20.2073 110.927 22.3693 111.15 23.9983L111.062 24.1033C110.617 24.0333 110.054 23.9983 109.375 23.9983C108.695 23.9983 108.132 24.0333 107.687 24.1033L107.617 23.9983C107.828 22.4513 107.933 20.2893 107.933 17.5123V13.9962C107.933 12.5782 107.74 11.6173 107.353 11.1133C106.966 10.6093 106.298 10.3573 105.349 10.3573C104.611 10.3573 103.767 10.6033 102.818 11.0963C101.869 11.5763 100.972 12.3143 100.129 13.3103V17.5123C100.129 20.2893 100.234 22.4513 100.445 23.9983L100.375 24.1033C99.9289 24.0333 99.3669 23.9983 98.6869 23.9983C98.0069 23.9983 97.4449 24.0333 96.9999 24.1033L96.9289 23.9983C97.1399 22.5333 97.2459 20.3713 97.2459 17.5123V15.5433C97.2459 12.2153 97.1399 9.88327 96.9289 8.54727L96.9999 8.44125C98.0189 8.54725 98.9919 8.51227 99.9179 8.33627C100.058 8.33627 100.129 8.45926 100.129 8.70526V11.3242L100.199 11.4303C100.738 10.7853 101.312 10.2403 101.921 9.79526C102.531 9.33826 103.117 9.00427 103.679 8.79327C104.242 8.57027 104.74 8.41827 105.173 8.33627C105.607 8.24227 106.023 8.19525 106.421 8.19525C108.004 8.19525 109.14 8.66426 109.832 9.60226C110.535 10.5393 110.886 11.9693 110.886 13.8913C110.886 14.2773 110.875 14.8813 110.851 15.7013C110.828 16.5213 110.816 17.1253 110.816 17.5123Z" fill="white"/>
<path d="M120.691 8.54727C120.691 7.78527 120.715 6.93026 120.762 5.98026C120.809 5.03126 120.832 4.35225 120.832 3.94125L120.902 3.83627C121.254 3.78927 121.559 3.72525 121.816 3.64325C122.086 3.54925 122.373 3.42625 122.678 3.27325C122.994 3.12125 123.24 3.01027 123.416 2.93927C123.639 2.93927 123.75 3.05726 123.75 3.29126C123.621 4.99026 123.557 6.74227 123.557 8.54727H125.262C125.508 8.54727 125.783 8.54727 126.088 8.54727C126.404 8.53527 126.727 8.52327 127.055 8.51227C127.395 8.48827 127.635 8.47726 127.775 8.47726L127.951 8.74026C127.764 9.20926 127.623 9.70125 127.529 10.2173C127.107 10.1703 126.24 10.1463 124.928 10.1463H123.557V14.6823C123.557 15.4903 123.539 16.4223 123.504 17.4773C123.469 18.5313 123.451 19.1933 123.451 19.4633C123.451 20.4473 123.539 21.1683 123.715 21.6253C123.902 22.0823 124.213 22.3463 124.646 22.4163C125.572 22.5573 126.516 22.4633 127.477 22.1353L127.916 23.0312C127.166 23.5123 126.475 23.8523 125.842 24.0513C125.209 24.2503 124.512 24.3503 123.75 24.3503C122.859 24.3503 122.104 24.0512 121.482 23.4532C120.873 22.8552 120.568 22.0063 120.568 20.9043C120.568 20.6353 120.586 19.7973 120.621 18.3913C120.668 16.9843 120.691 15.8773 120.691 15.0683V10.1463C119.531 10.1463 118.676 10.1703 118.125 10.2173L117.949 9.95325C118.266 9.46125 118.529 8.96926 118.74 8.47726C119.127 8.52326 119.777 8.54727 120.691 8.54727Z" fill="white"/>
<path d="M134.891 20.3593L135.436 20.3242C135.975 21.0862 136.614 21.7133 137.352 22.2053C138.102 22.6863 138.881 22.9263 139.69 22.9263C140.674 22.9263 141.471 22.6623 142.08 22.1353C142.69 21.6073 142.995 20.8753 142.995 19.9373C142.995 19.1413 142.696 18.5373 142.098 18.1273C141.536 17.7523 140.621 17.3833 139.356 17.0193C138.735 16.8443 138.202 16.6623 137.756 16.4753C137.311 16.2753 136.866 16.0123 136.42 15.6843C135.975 15.3443 135.635 14.9163 135.401 14.4003C135.166 13.8853 135.049 13.2813 135.049 12.5903C135.049 11.6413 135.319 10.8263 135.858 10.1463C136.409 9.45527 137.082 8.95725 137.879 8.65225C138.688 8.34825 139.555 8.19525 140.481 8.19525C141.348 8.19525 142.233 8.30127 143.135 8.51227C144.049 8.72327 144.782 8.97525 145.332 9.26825L145.403 9.39127L144.682 12.0453L144.19 12.0803C143.51 11.2833 142.965 10.7323 142.555 10.4283C141.84 9.90025 141.102 9.63727 140.34 9.63727C139.532 9.63727 138.87 9.83625 138.354 10.2343C137.85 10.6333 137.598 11.1893 137.598 11.9043C137.598 13.2283 138.711 14.1663 140.938 14.7173C141.641 14.8813 142.256 15.0803 142.784 15.3143C143.323 15.5373 143.832 15.8303 144.313 16.1933C144.805 16.5453 145.18 16.9963 145.438 17.5473C145.707 18.0983 145.842 18.7253 145.842 19.4283C145.842 19.8613 145.789 20.2893 145.684 20.7113C145.59 21.1213 145.403 21.5553 145.121 22.0123C144.84 22.4693 144.477 22.8673 144.032 23.2073C143.598 23.5353 143.006 23.8053 142.256 24.0163C141.518 24.2383 140.674 24.3503 139.725 24.3503C137.944 24.3503 136.133 24.0273 134.293 23.3833L134.891 20.3593Z" fill="white"/>
</svg>
